<svg width="559" height="624" viewBox="0 0 559 624" fill="none" xmlns="http://www.w3.org/2000/svg">
<path opacity="0.1" d="M253 604C298.287 604 335 599.243 335 593.374C335 587.505 298.287 582.748 253 582.748C207.713 582.748 171 587.505 171 593.374C171 599.243 207.713 604 253 604Z" fill="#4B7CA0"/>
<path opacity="0.1" d="M263.649 311.266H244.469V330.576H263.649V311.266Z" fill="#4B7CA0"/>
<path opacity="0.1" d="M263.649 358.896H244.469V378.206H263.649V358.896Z" fill="#4B7CA0"/>
<path opacity="0.1" d="M263.649 406.52H244.469V425.83H263.649V406.52Z" fill="#4B7CA0"/>
<path opacity="0.1" d="M263.649 454.15H244.469V473.46H263.649V454.15Z" fill="#4B7CA0"/>
<path d="M303.89 577.377L303.088 586.998L305.778 586.455L305.374 576.019L303.89 577.377Z" fill="#1D2366"/>
<path d="M242.5 531.696C239.256 540.998 240.173 553.552 240.901 559.649C241.171 561.903 241.421 563.275 241.421 563.275C241.421 563.275 236.572 574.397 236.167 574.818C235.762 575.239 221.897 583.76 221.897 583.76L212.206 589.456C212.206 589.456 202.373 585.118 207.087 583.624C208.05 583.235 208.918 582.639 209.629 581.879C214.35 577.364 220.278 566.14 220.278 566.14C220.278 566.14 220.683 560.444 222.167 557.735C223.65 555.025 223.111 526.556 223.111 526.556L223.225 480.148V474.098L241.67 474.234C241.786 476.288 242.052 478.33 242.466 480.345C243.128 483.822 243.986 487.259 245.035 490.638C248.286 501.223 246.937 518.951 242.5 531.696Z" fill="#FFB0B1"/>
<path opacity="0.1" d="M241.421 563.275C241.421 563.275 236.572 574.397 236.167 574.818C235.762 575.239 221.897 583.76 221.897 583.76L212.206 589.456C212.206 589.456 202.373 585.118 207.087 583.624C208.05 583.235 208.918 582.639 209.629 581.879L210.048 584.846L213.278 584.71L240.928 559.663C241.171 561.903 241.421 563.275 241.421 563.275Z" fill="black"/>
<path d="M241.084 560.294L213.279 585.511L210.048 585.647L209.374 580.894C209.374 580.894 203.722 588.214 191.165 587.806C191.165 587.806 183.625 592.824 194.8 593.096C205.975 593.367 220.245 592.688 220.245 592.688C220.245 592.688 230.213 577.072 238.555 579.109V590.903H241.118V579C242.309 578.193 243.326 577.151 244.107 575.937C244.888 574.724 245.418 573.364 245.663 571.939C245.885 570.471 245.728 568.971 245.207 567.582C244.686 566.193 243.819 564.962 242.689 564.008C242.184 563.532 241.782 562.957 241.506 562.318C241.23 561.679 241.086 560.991 241.084 560.294V560.294Z" fill="#1D2366"/>
<path d="M306.453 546.199C304.659 552.649 305.637 556.282 306.864 558.23V558.271C308.438 560.677 309.533 563.368 310.088 566.195L310.196 566.806L297.544 585.376L290.679 588.092C290.679 588.092 279.639 584.296 281.655 583.21C282.161 582.945 282.95 581.533 283.854 579.584C286.551 573.711 290.274 562.874 290.274 562.874V562.786C290.665 558.312 291.286 553.851 291.974 549.41C293.208 541.419 290.942 521.803 290.942 521.803C290.942 521.803 290.132 497.951 288.379 492.526C287.587 489.767 287.061 486.939 286.808 484.079C286.443 480.684 286.363 477.887 286.363 477.887C286.363 477.887 293.633 467.702 306.959 478.702C308.024 479.579 308.962 480.603 309.744 481.744C318.949 494.929 311.538 523.976 311.538 523.976C311.538 523.976 309.683 534.541 306.453 546.199Z" fill="#FFB0B1"/>
<path opacity="0.1" d="M310.216 566.806L297.565 585.376L290.699 588.092C290.699 588.092 279.659 584.296 281.676 583.21C282.182 582.945 282.971 581.533 283.874 579.584C288.548 579.543 290.969 584.025 290.969 584.025L296.89 583.074C296.89 583.074 304.7 567.62 306.453 566.677C308.207 565.733 306.723 559.622 306.723 559.622V558.067C306.77 558.122 306.811 558.183 306.865 558.237V558.278C308.439 560.684 309.534 563.375 310.088 566.201L310.216 566.806Z" fill="black"/>
<path d="M291.373 584.425C291.373 584.425 288.001 578.192 281.541 580.494C281.541 580.494 277.906 587.963 274.271 589.171C270.636 590.38 271.85 594.454 280.064 592.967C288.278 591.48 300.66 590.251 300.66 590.251L301.199 582.653L309.548 571.946C309.548 571.946 314.526 567.403 307.121 558.461V560.016C307.121 560.016 308.604 566.127 306.851 567.07C305.097 568.014 297.315 583.475 297.315 583.475L291.373 584.425Z" fill="#1D2366"/>
<path opacity="0.1" d="M241.691 474.22C241.807 476.274 242.073 478.317 242.486 480.331C234.893 479.211 227.845 479.768 223.226 480.134V474.085L241.691 474.22Z" fill="black"/>
<path opacity="0.1" d="M310.493 483.434C310.493 483.434 299.703 483.964 286.835 484.072C286.471 480.678 286.39 477.88 286.39 477.88C286.39 477.88 293.66 467.696 306.986 478.695C308.052 479.572 308.99 480.596 309.771 481.737C309.98 482.316 310.221 482.882 310.493 483.434V483.434Z" fill="black"/>
<path d="M310.493 482.212C310.493 482.212 263.231 484.514 248.826 480.447C234.421 476.38 220.144 479.904 217.992 478.96C215.841 478.016 217.588 463.235 219.476 459.575C221.364 455.915 231.723 418.904 231.723 418.904L241.691 366.582L252.191 363.67L252.933 363.459L271.229 358.38L284.636 354.653C284.636 354.653 311.295 459.439 309.009 467.166C308.179 470.125 308.045 473.237 308.618 476.257C308.967 478.32 309.598 480.324 310.493 482.212V482.212Z" fill="#1D2366"/>
<path d="M206.946 330.8C206.946 330.8 197.504 340.985 204.653 346.661C211.801 352.337 216.502 347.204 216.502 347.204L206.946 330.8Z" fill="#C7DAF5"/>
<path opacity="0.1" d="M206.946 330.8C206.946 330.8 197.504 340.985 204.653 346.661C211.801 352.337 216.502 347.204 216.502 347.204L206.946 330.8Z" fill="black"/>
<path d="M283.227 263.84C283.227 263.84 282.121 264.899 280.455 266.461C278.081 268.695 274.567 271.96 271.452 274.697C267.135 278.479 263.575 281.256 264.849 278.886C266.124 276.516 265.881 272.388 265.247 268.525C265.2 268.267 265.159 268.009 265.112 267.758C264.587 264.92 263.891 262.118 263.028 259.365C263.028 259.365 270.002 250.294 273.859 246.716C275.296 245.358 276.3 244.801 276.361 245.745C276.429 247.015 277.373 249.819 278.546 252.793C278.58 252.888 278.614 252.976 278.654 253.071C279.436 255.108 280.32 257.199 281.095 259.006C282.282 261.776 283.227 263.84 283.227 263.84Z" fill="#FFB0B1"/>
<path opacity="0.1" d="M278.654 253.071C277.999 256.62 276.409 259.926 274.05 262.644C271.692 265.363 268.652 267.394 265.247 268.525C264.711 265.425 263.97 262.365 263.028 259.365C263.028 259.365 276.159 242.289 276.361 245.745C276.408 247.055 277.433 249.961 278.654 253.071Z" fill="black"/>
<path opacity="0.1" d="M263.939 273.087L265.639 270.677C265.639 270.677 266.765 277.589 270.906 274.54C275.046 271.492 275.249 297.483 275.249 297.483L270.805 364.382L238.69 362.447L239.6 330.121L243.235 313.826L252.225 290.136L257.573 282.308L263.939 273.087Z" fill="black"/>
<path d="M275.248 297.897L271.202 358.387L270.777 364.797L252.872 363.717L252.197 363.677L238.709 362.862L239.62 330.529L243.255 314.233L252.245 290.544L257.593 282.715L263.959 273.461L265.658 271.057C265.658 271.057 266.785 277.969 270.925 274.921L271.013 274.86C275.06 272.28 275.248 297.897 275.248 297.897Z" fill="#1D2366"/>
<path d="M243.707 308.571C243.707 308.571 242.095 311.966 238.858 311.416C235.621 310.866 235.628 323.637 235.628 323.637C235.628 323.637 233.477 325.674 231.993 323.909C230.509 322.143 226.598 328.112 226.598 328.112L202.09 329.198C202.09 329.198 212.995 334.216 210.857 349.398C210.857 349.398 247.882 347.089 249.096 343.565C250.31 340.041 243.707 308.571 243.707 308.571Z" fill="white"/>
<path opacity="0.03" d="M243.707 308.571C243.707 308.571 242.095 311.966 238.858 311.416C235.621 310.866 235.628 323.637 235.628 323.637C235.628 323.637 233.477 325.674 231.993 323.909C230.509 322.143 226.598 328.112 226.598 328.112L202.09 329.198C202.09 329.198 212.995 334.216 210.857 349.398C210.857 349.398 247.882 347.089 249.096 343.565C250.31 340.041 243.707 308.571 243.707 308.571Z" fill="black"/>
<path d="M172.484 337.176L178.945 342.73L232.128 353.981L225.532 347.204L172.484 337.176Z" fill="white"/>
<path d="M264.04 275.226C263.157 276.584 260.628 283.537 258.517 289.607C256.757 294.665 255.287 299.112 255.287 299.112C255.287 299.112 251.854 321.614 250.101 325.681C248.347 329.748 249.298 345.609 249.298 345.609L242.763 384.779C242.763 384.779 239.803 404.978 235.23 417.044C230.718 428.919 225.694 434.487 225.539 434.663C227.562 431.907 238.589 377.629 238.589 377.629L242.23 309.175C242.23 309.175 242.763 302.67 243.303 297.11C243.842 291.549 254.767 283.958 254.767 283.958L265.302 268.878C266.36 270.304 265.652 272.789 264.04 275.226Z" fill="white"/>
<path d="M236.572 363.201C236.572 363.201 221.061 362.522 213.548 353.437C206.035 344.353 230.914 349.812 230.914 349.812L237.381 351.305L236.572 363.201Z" fill="#FFB0B1"/>
<path opacity="0.1" d="M309.009 467.173C308.179 470.132 308.045 473.244 308.618 476.264C291.697 477.473 273.597 472.869 273.597 472.869C270.225 475.993 261.343 480.596 261.343 480.596L256.501 420.167C253.405 412.02 252.191 369.332 252.191 369.332C252.191 369.332 252.468 367.099 252.866 363.751C252.866 363.67 252.866 363.581 252.899 363.5C254.106 354.15 256.501 336.599 257.674 334.229C259.293 330.97 252.697 322.3 252.697 322.3L255.698 296.533L256.062 293.423C262.388 290.578 267.237 281.493 267.237 281.493L270.96 274.927C275.006 272.313 275.215 297.931 275.215 297.931L271.169 358.421L284.576 354.694C284.576 354.694 311.295 459.446 309.009 467.173Z" fill="black"/>
<path d="M326.374 471.348C307.93 480.569 274.405 472.027 274.405 472.027C271.033 475.151 262.152 479.754 262.152 479.754L257.303 419.325C254.214 411.178 253 368.49 253 368.49C253 368.49 256.898 336.64 258.517 333.387C258.989 332.437 258.759 331.024 258.2 329.504C255.448 322.265 254.435 314.473 255.246 306.765L256.541 295.691L256.898 292.588C263.231 289.736 268.08 280.651 268.08 280.651L271.452 274.703L277.656 263.745L280.596 258.557L281.095 259.012L284.906 262.489C284.906 262.489 286.524 263.847 288.952 265.884C294.233 270.365 303.357 278.254 308.065 283.082C312.205 287.332 313.514 303.865 313.891 316.311C314.141 324.506 313.993 330.929 313.993 330.929C309.818 337.848 320.736 393.395 320.736 393.395C323.279 404.13 326.374 471.348 326.374 471.348Z" fill="white"/>
<path opacity="0.03" d="M290.969 280.515C290.969 280.515 278.31 304.775 279.781 313.996C281.251 323.216 285.432 333.652 283.416 336.089C282.723 337.013 281.827 337.763 280.799 338.28C279.77 338.797 278.637 339.067 277.488 339.07C275.464 339.206 270.069 343.001 270.069 343.409C270.069 343.816 265.085 343.816 260.628 345.717C256.17 347.618 249.588 348.698 249.588 348.698C249.588 348.698 236.774 348.291 235.581 349.513C234.387 350.735 233.159 358.048 235.715 363.88C238.271 369.712 241.111 374.065 243.255 374.859C245.4 375.653 259.009 371.064 270.049 369.977C281.089 368.891 293.073 360.084 293.073 360.084C293.073 360.084 306.271 355.332 308.584 347.34C310.897 339.349 305.758 295.426 305.758 295.426C305.758 295.426 301.874 274.954 290.969 280.515Z" fill="black"/>
<path opacity="0.03" d="M289.351 278.478C289.351 278.478 276.692 302.745 278.176 311.959C279.66 321.173 283.827 331.615 281.804 334.059C281.114 334.984 280.22 335.734 279.192 336.252C278.165 336.769 277.032 337.039 275.883 337.04C273.86 337.176 268.465 340.971 268.465 341.379C268.465 341.786 263.481 341.786 259.023 343.681C254.565 345.575 247.983 346.661 247.983 346.661C247.983 346.661 235.17 346.254 233.983 347.476C232.796 348.698 231.555 356.018 234.117 361.843C236.68 367.669 239.513 372.028 241.657 372.822C243.802 373.617 257.411 369.027 268.451 367.947C279.491 366.868 291.475 358.048 291.475 358.048C291.475 358.048 304.666 353.295 306.952 345.31C309.239 337.325 304.127 293.389 304.127 293.389C304.127 293.389 300.256 272.924 289.351 278.478Z" fill="black"/>
<path d="M290.571 279.293C290.571 279.293 277.912 303.56 279.396 312.774C280.88 321.987 285.048 332.43 283.031 334.867C282.341 335.794 281.446 336.546 280.417 337.065C279.388 337.583 278.254 337.854 277.103 337.855C275.08 337.991 269.685 341.786 269.685 342.187C269.685 342.587 264.708 342.594 260.243 344.495C255.779 346.396 249.203 347.476 249.203 347.476C249.203 347.476 236.39 347.069 235.196 348.291C234.002 349.513 232.775 356.832 235.331 362.658C237.887 368.484 240.726 372.843 242.871 373.637C245.015 374.431 258.625 369.841 269.664 368.755C280.704 367.669 292.688 358.862 292.688 358.862C292.688 358.862 305.886 354.11 308.2 346.118C310.513 338.126 305.408 294.204 305.408 294.204C305.408 294.204 301.469 273.766 290.571 279.293Z" fill="white"/>
<path opacity="0.1" d="M290.294 344.38C290.294 344.38 280.178 342.343 283.699 345.738C287.219 349.133 287.199 352.107 291.508 351.971C295.817 351.835 290.294 344.38 290.294 344.38Z" fill="black"/>
<path opacity="0.1" d="M307.39 417.424C307.39 417.424 302.818 420.541 311.565 427.724C320.312 434.908 307.39 417.424 307.39 417.424Z" fill="black"/>
<path opacity="0.1" d="M298.664 443.042C298.664 443.449 297.045 457.979 303.101 461.612C309.158 465.244 298.664 443.042 298.664 443.042Z" fill="black"/>
<path d="M202.508 329.164C197.625 329.334 187.078 330.834 192.547 341.107C197.382 350.199 205.509 344.122 210.081 339.512C208.966 335.213 206.255 331.51 202.508 329.164V329.164Z" fill="#FFB0B1"/>
<path d="M210.142 339.43L210.345 339.22L210.142 339.43Z" fill="#FFB0B1"/>
<path opacity="0.1" d="M288.952 266.298C283.773 269.862 279.43 272.87 278.58 273.495C276.26 275.226 271.836 285.391 268.983 290.578C266.71 294.754 259.326 295.826 256.541 296.091L256.898 292.988C263.231 290.137 268.08 281.052 268.08 281.052L280.596 258.958L284.906 262.903C284.906 262.903 286.524 264.261 288.952 266.298Z" fill="black"/>
<path d="M288.952 265.89C283.773 269.455 279.43 272.463 278.58 273.094C276.26 274.819 271.836 284.983 268.983 290.17C266.71 294.346 259.326 295.419 256.541 295.684L256.898 292.581C263.231 289.729 268.08 280.644 268.08 280.644L280.596 258.551L284.906 262.482C284.906 262.482 286.524 263.826 288.952 265.89Z" fill="#DCE7FF"/>
<path d="M278.984 248.59C278.987 252.666 277.759 256.646 275.464 260.004C272.753 263.973 268.718 266.833 264.092 268.064C259.466 269.294 254.555 268.815 250.25 266.712C245.945 264.609 242.532 261.022 240.629 256.602C238.726 252.182 238.46 247.222 239.879 242.621C241.298 238.021 244.308 234.085 248.363 231.527C252.418 228.97 257.249 227.961 261.98 228.683C266.711 229.405 271.028 231.81 274.148 235.463C277.267 239.115 278.983 243.773 278.984 248.59V248.59Z" fill="#FFB0B1"/>
<path opacity="0.1" d="M313.892 316.318C311.153 314.622 308.922 312.209 307.438 309.338C306.311 307.097 305.563 304.51 303.641 302.922C301.908 301.496 299.594 301.149 297.436 300.511C290.342 298.4 284.393 291.881 284.171 284.44C284.063 280.936 285.149 277.44 284.656 273.97C284.376 272.006 283.601 270.148 282.404 268.572C281.81 267.819 281.158 267.113 280.455 266.461C279.511 265.564 278.519 264.695 277.656 263.745C277.112 263.156 276.637 262.507 276.24 261.81C275.919 261.239 275.659 260.636 275.464 260.01C274.116 255.855 275.343 250.926 273.859 246.723L273.778 246.492C273.219 244.998 272.079 243.504 270.494 243.389C268.909 243.273 267.554 244.597 266.043 245.188C262.88 246.424 259.468 244.319 256.831 242.174C254.194 240.028 251.22 237.577 247.868 238.052C245.649 238.371 243.896 239.892 241.852 240.68C241.391 240.86 240.915 240.998 240.429 241.094C242.159 236.752 245.336 233.152 249.415 230.912C253.495 228.672 258.221 227.933 262.783 228.821C267.346 229.708 271.458 232.168 274.415 235.777C277.371 239.386 278.987 243.919 278.985 248.597C278.987 250.009 278.84 251.418 278.546 252.8C278.58 252.895 278.614 252.983 278.654 253.078C279.437 255.115 280.32 257.206 281.096 259.012L284.906 262.489C284.906 262.489 286.524 263.846 288.952 265.883C294.233 270.365 303.357 278.254 308.065 283.082C312.206 287.346 313.5 303.872 313.892 316.318Z" fill="black"/>
<path d="M241.617 228.275C242.581 226.299 243.06 224.086 244.213 222.212C245.906 219.496 248.86 217.758 251.895 216.705C259.819 213.955 276.564 209.963 281.568 216.705C282.553 218.063 283.369 219.571 284.731 220.508C285.77 221.22 287.024 221.526 288.164 222.062C291.354 223.57 293.39 226.856 294.476 230.21C295.562 233.564 295.886 237.163 296.681 240.619C297.7 245.052 299.487 249.255 301.267 253.431C303.365 258.36 305.59 263.473 309.637 266.956C315.16 271.709 316.381 278.438 321.506 283.652C327.576 289.845 327.38 300.063 324.251 308.177C323.839 309.243 323.374 310.356 323.536 311.49C323.698 312.624 324.534 313.656 325.323 314.559L328.641 318.328C320.791 320.236 311.909 316.107 308.254 308.863C307.128 306.622 306.379 304.042 304.45 302.446C302.724 301.02 300.404 300.681 298.253 300.043C291.158 297.924 285.21 291.399 284.987 283.958C284.879 280.461 285.965 276.964 285.473 273.502C285.199 271.525 284.421 269.653 283.214 268.07C281.359 265.632 278.56 263.996 277.05 261.28C274.494 256.738 276.436 250.837 274.595 245.962C274.028 244.469 272.895 242.975 271.311 242.859C269.726 242.744 268.37 244.068 266.853 244.659C263.697 245.894 260.284 243.796 257.647 241.644C255.01 239.492 252.036 237.047 248.678 237.529C246.459 237.842 244.712 239.363 242.669 240.157C241.158 240.741 238.096 241.264 236.775 239.981C233.983 237.394 240.45 230.692 241.617 228.275Z" fill="#591D4B"/>
<path opacity="0.1" d="M310.129 306.622C308.996 304.381 308.254 301.801 306.325 300.213C304.598 298.787 302.279 298.44 300.12 297.802C293.033 295.691 287.084 289.166 286.855 281.724C286.747 278.227 287.833 274.724 287.347 271.261C287.065 269.297 286.287 267.438 285.088 265.863C283.227 263.426 280.428 261.789 278.924 259.073C276.368 254.538 278.31 248.637 276.463 243.756C275.903 242.269 274.763 240.775 273.185 240.653C271.607 240.531 270.238 241.868 268.727 242.459C265.571 243.695 262.152 241.59 259.522 239.444C256.892 237.299 253.904 234.848 250.552 235.323C248.333 235.642 246.58 237.163 244.543 237.95C243.033 238.534 239.964 239.064 238.642 237.781C235.864 235.065 242.331 228.377 243.491 225.973C244.456 223.991 244.935 221.784 246.094 219.91C246.155 219.808 246.223 219.706 246.29 219.604C245.422 220.328 244.674 221.185 244.071 222.144C242.918 224.018 242.439 226.218 241.475 228.207C240.308 230.611 233.841 237.319 236.626 240.015C237.975 241.305 241.01 240.775 242.52 240.191C244.543 239.397 246.31 237.876 248.529 237.563C251.901 237.081 254.868 239.532 257.499 241.678C260.129 243.824 263.568 245.928 266.711 244.693C268.221 244.102 269.543 242.771 271.162 242.893C272.78 243.016 273.859 244.503 274.446 245.996C276.287 250.871 274.345 256.772 276.901 261.314C278.412 263.982 281.21 265.653 283.065 268.104C284.272 269.687 285.05 271.559 285.324 273.536C285.816 276.998 284.731 280.495 284.839 283.992C285.061 291.461 291.009 297.958 298.104 300.077C300.242 300.715 302.575 301.054 304.302 302.48C306.237 304.076 306.999 306.656 308.105 308.897C311.761 316.141 320.642 320.269 328.492 318.362L326.928 316.583C320.123 316.684 313.238 312.787 310.129 306.622Z" fill="black"/>
<path opacity="0.1" d="M263.636 275.634C262.752 276.992 260.223 283.944 258.112 290.014C256.136 289.24 254.343 284.304 254.343 284.304L264.877 269.217C265.956 270.711 265.248 273.189 263.636 275.634Z" fill="black"/>
<path d="M264.04 275.226C263.157 276.584 260.628 283.537 258.517 289.607C256.541 288.84 254.747 283.897 254.747 283.897L265.281 268.817C266.36 270.304 265.652 272.789 264.04 275.226Z" fill="#DCE7FF"/>
<path d="M202.792 344.59L196.951 326.048C196.882 325.83 196.856 325.602 196.875 325.375C196.894 325.147 196.957 324.926 197.061 324.724C197.165 324.521 197.308 324.341 197.481 324.194C197.655 324.048 197.855 323.937 198.071 323.868V323.868C198.505 323.731 198.976 323.773 199.38 323.984C199.784 324.195 200.089 324.559 200.229 324.995L206.069 343.518L205.489 347.395L202.792 344.59Z" fill="#BE8B87"/>
<path opacity="0.1" d="M197.504 324.418C197.939 324.279 198.412 324.32 198.818 324.531C199.223 324.743 199.529 325.107 199.669 325.545L205.509 344.068L205.071 346.974L205.496 347.422L206.076 343.545L200.202 325.022C200.062 324.586 199.757 324.223 199.353 324.012C198.949 323.8 198.478 323.759 198.043 323.895V323.895C197.678 324.015 197.362 324.254 197.146 324.574C197.261 324.512 197.381 324.46 197.504 324.418V324.418Z" fill="white"/>
<path d="M202.792 344.59L206.069 343.545L205.59 346.722L205.489 347.422L204.531 346.417L202.792 344.59Z" fill="#EFC8C4"/>
<path d="M204.531 346.417C204.588 346.344 204.659 346.284 204.74 346.24C204.788 346.21 204.843 346.194 204.899 346.194C204.955 346.194 205.01 346.21 205.057 346.24C205.103 346.296 205.142 346.358 205.172 346.424C205.217 346.499 205.277 346.562 205.35 346.611C205.422 346.659 205.504 346.69 205.59 346.702L205.489 347.381L204.531 346.417Z" fill="#727A9C"/>
<path d="M196.917 332.634C196.917 332.634 208.632 332.566 205.873 337.583C203.115 342.601 198.806 343.205 198.806 343.205L196.917 332.634Z" fill="#FFB0B1"/>
<path opacity="0.1" d="M80.8214 604C117.371 604 147 599.23 147 593.345C147 587.461 117.371 582.69 80.8214 582.69C44.272 582.69 14.6428 587.461 14.6428 593.345C14.6428 599.23 44.272 604 80.8214 604Z" fill="#4B7CA0"/>
<path d="M144.813 329.878C144.813 329.878 142.137 329.504 142.137 325.596C142.137 321.688 140.222 314.389 140.222 314.389C140.222 314.355 138.565 301.678 136.276 299.663C133.987 297.648 131.046 285.815 131.046 285.815C131.046 285.815 130.544 279.395 129.518 278.013C128.493 276.631 127.107 273.247 125.063 268.42C123.018 263.593 114.495 260.25 114.495 260.25C114.495 260.25 99.0844 251.29 94.7173 248.369C94.3204 248.13 93.9494 247.849 93.6103 247.532C92.8496 246.531 89.5353 246.511 89.5353 246.511C89.1889 244.319 88.8561 241.8 88.7474 239.519C88.7474 239.274 88.7474 239.029 88.7135 238.783C93.5831 235.898 97.2509 231.348 99.0437 225.97C99.1252 225.712 99.1931 225.439 99.2678 225.18C99.5596 225.084 99.8281 224.928 100.056 224.721C100.284 224.515 100.467 224.263 100.592 223.982C100.986 223.104 100.993 222.076 101.482 221.259C102.052 220.292 103.139 219.775 103.995 219.046C106.155 217.208 106.712 214.11 106.61 211.292C106.542 209.011 106.175 206.71 106.318 204.442L106.358 203.871C106.399 203.53 106.447 203.19 106.508 202.863C106.841 201.175 107.567 199.581 107.975 197.907C108.382 196.232 108.423 194.346 107.472 192.902C106.08 190.785 103.18 190.363 100.633 190.145C97.7465 189.9 95.1656 190.22 93.3182 187.817C92.4537 186.561 91.481 185.383 90.4114 184.297C90.0311 183.943 86.3364 181.682 86.3364 181.533C82.7303 179.858 78.6429 179.544 74.8244 180.648C72.9091 181.206 71.1025 182.118 69.1601 182.574C64.9696 183.568 60.1475 182.493 56.5886 184.896C54.6054 186.258 53.4169 188.423 52.303 190.533C51.3975 192.272 50.4783 194.008 49.5456 195.741C48.0446 198.594 46.5165 201.494 45.8849 204.654C45.752 205.341 45.6703 206.037 45.6404 206.737V206.771C45.6404 207.023 45.6404 207.275 45.6404 207.527V207.847C45.6404 208.085 45.6404 208.316 45.6811 208.527C45.7219 208.739 45.7151 208.807 45.7354 208.95C45.7558 209.093 45.7898 209.413 45.8305 209.63C45.8713 209.848 45.9528 210.23 46.0343 210.529C46.0682 210.658 46.1158 210.781 46.1565 210.904C46.2244 211.135 46.306 211.36 46.3942 211.584C46.4418 211.7 46.4893 211.823 46.5437 211.938C46.6455 212.177 46.7678 212.408 46.89 212.619C46.9444 212.715 46.9851 212.803 47.0395 212.892C47.229 213.208 47.4376 213.513 47.6643 213.804C49.1177 215.622 51.2571 216.779 52.8396 218.481C52.8396 218.549 52.8396 218.617 52.8396 218.679C52.8396 218.869 52.8396 219.053 52.8396 219.244C52.9235 223.04 53.9314 226.758 55.7756 230.074C57.6198 233.39 60.2444 236.205 63.4211 238.273C63.4211 238.532 63.4551 238.797 63.4686 239.056C63.6011 241.077 63.5761 243.105 63.3939 245.122C63.1174 244.795 62.7712 244.535 62.3809 244.361C61.9906 244.187 61.5662 244.102 61.1391 244.114C60.8473 244.1 60.5548 244.125 60.2697 244.189L60.2086 244.142V244.203C58.7144 244.57 56.8739 246.13 55.1148 250.562C55.1148 250.562 49.763 256.608 45.6879 256.356C41.6129 256.104 31.2963 262.646 31.2963 262.646C31.2963 262.646 21.2309 269.196 19.0712 275.868C17.864 279.652 16.4166 283.354 14.738 286.952L2.29561 312.653L0 333.044C0 333.044 1.27005 342.113 1.01876 343.495C0.767464 344.877 6.24159 357.343 6.24159 357.343C6.24159 357.343 24.328 389.199 31.7173 390.833L32.2471 390.458C32.5633 390.624 32.8986 390.75 33.2455 390.833L34.7668 389.757C34.8582 390.956 34.8195 392.161 34.6514 393.352C33.6326 396.497 35.0317 417.024 36.8111 421.048C38.5906 425.072 37.9589 477.829 37.9589 477.829L37.7076 482.486C37.7076 482.486 37.7076 482.636 37.7688 482.894L37.7076 483.997L37.891 484.093C38.0814 485.57 38.0194 487.069 37.7076 488.525C37.0692 490.567 36.8111 496.341 36.8111 496.341C36.8111 496.341 31.7241 528.939 34.1352 535.488C36.5463 542.038 38.5974 549.214 38.5974 549.214C38.5974 549.214 41.1443 557.384 38.7196 558.779C36.295 560.175 29.4014 562.517 30.8208 565.921C32.1113 569.067 37.0081 577.495 37.7348 578.728L37.6737 579.374L36.6753 590.22C36.837 591.652 37.2244 593.049 37.8231 594.359C38.9166 596.722 41.0424 599.173 45.0834 598.907C45.7626 598.86 46.5505 598.778 47.3111 598.676C54.7073 597.682 63.815 594.373 63.815 594.373C63.3422 594.072 62.9087 593.713 62.5246 593.304V593.304C62.161 592.951 61.873 592.528 61.678 592.059C61.483 591.591 61.3852 591.088 61.3904 590.581C61.499 588.606 57.8111 579.197 56.8943 576.883C56.7516 576.549 56.6769 576.358 56.6769 576.358C56.6769 576.358 65.0851 567.548 63.686 559.739C63.686 559.739 54.3813 554.293 57.4444 551.304C60.5075 548.315 65.9816 539.73 65.9816 539.73C65.9816 539.73 66.2329 507.629 65.9816 502.836C65.7195 499.509 65.8769 496.162 66.4502 492.875C66.5521 492.378 66.6743 491.895 66.8034 491.418C71.0395 492.052 75.3159 492.378 79.599 492.392C81.1611 492.392 82.7503 492.392 84.3532 492.297C84.3532 492.75 84.3736 493.241 84.4143 493.767C84.7675 501.719 85.4263 515.663 85.9628 520.844C86.7235 528.271 90.9276 548.288 90.9276 548.288C90.9276 548.288 82.9065 553.449 92.3267 566.166C92.3267 566.166 92.3267 570.776 91.7018 571.443C91.0348 573.624 90.4973 575.843 90.0922 578.088C89.6983 580.484 89.5353 582.908 90.1737 584.167C91.7018 587.177 100.871 586.932 100.871 586.932L101.095 586.891C102.826 586.711 104.575 586.878 106.241 587.382C107.907 587.886 109.457 588.716 110.8 589.825C114.284 592.63 127.508 591.398 134.666 590.506C137.471 590.152 139.346 589.825 139.346 589.825C139.437 589.507 139.469 589.175 139.441 588.845C139.366 587.081 137.987 583.214 128.642 579.763C128.642 579.763 119.853 573.839 119.976 568.679H119.792H118.774C119.514 568.638 119.989 568.679 119.989 568.679C119.989 568.679 116.546 556.083 117.952 555.062C119.358 554.041 115.147 540.084 115.147 540.084C115.147 540.084 112.736 516.663 112.607 515.023C112.612 513.615 112.825 512.215 113.238 510.87L112.607 498.029C112.607 498.029 112.484 493.76 112.607 492.371C112.586 491.166 112.489 489.963 112.315 488.77C112.254 488.293 112.192 487.796 112.125 487.306C115.419 486.469 117.558 485.692 117.558 485.692L117.178 440.996C119.976 435.55 120.492 423.601 120.478 415.125C120.478 409.678 120.234 405.648 120.234 405.648L124.058 399.391C124.058 399.391 124.94 391.902 123.541 390.261C122.923 389.519 123.202 388.749 123.711 388.116C123.976 387.906 124.255 387.715 124.547 387.544C124.547 387.544 124.506 387.483 124.458 387.395C124.725 387.171 125.009 386.968 125.307 386.789C125.307 386.789 123.949 384.678 125.165 383.786C126.306 384.562 127.324 385.148 128.099 385.624C128.044 386.121 127.99 386.407 127.99 386.407L128.316 385.727C129.063 386.149 129.518 386.407 129.518 386.407C129.518 386.407 135.508 374.445 135.379 372.682C135.25 370.919 139.454 363.491 139.454 363.491C139.454 363.491 139.964 359.59 142.259 357.956C144.555 356.322 144.039 344.482 144.039 344.482C144.039 344.482 144.677 338.314 146.205 335.795C147.734 333.276 144.813 329.878 144.813 329.878ZM30.196 324.629L30.3115 327.482C29.6323 326.386 29.1433 325.596 29.1433 325.596L30.196 324.629Z" fill="url(#paint0_linear_445_2665)"/>
<path d="M129.844 381.24L128.377 387.504C128.377 387.504 116.627 381.492 114.508 373.853C112.389 366.214 118.053 363.314 118.053 363.314L129.002 367.964L129.844 381.24Z" fill="white"/>
<path opacity="0.1" d="M129.844 381.24L128.377 387.504C128.377 387.504 116.627 381.492 114.508 373.853C112.389 366.214 118.053 363.314 118.053 363.314L129.002 367.964L129.844 381.24Z" fill="black"/>
<path d="M63.9031 594.414C63.9031 594.414 53.0363 598.417 45.5655 598.921C41.5991 599.186 39.514 596.749 38.4409 594.4C37.8547 593.095 37.4766 591.705 37.3203 590.281L38.2915 579.49L38.8077 573.744L54.68 569.611L56.928 576.501L57.1386 577.026C58.0419 579.327 61.6618 588.688 61.5532 590.642C61.5487 591.142 61.6451 591.639 61.8365 592.101C62.0279 592.563 62.3104 592.981 62.667 593.331C63.0315 593.743 63.4468 594.107 63.9031 594.414V594.414Z" fill="white"/>
<path d="M138.13 588.926C138.157 589.254 138.125 589.584 138.035 589.9C138.035 589.9 114.794 593.788 110.039 589.9C108.699 588.764 107.137 587.922 105.452 587.427C103.768 586.933 101.999 586.796 100.259 587.027C100.259 587.027 91.2672 587.272 89.7662 584.304C89.1414 583.058 89.3043 580.641 89.6915 578.258C90.0864 576.025 90.6126 573.818 91.2672 571.647L91.6271 571.361L93.7665 569.639L118.814 568.896H119.005C118.882 574.03 127.508 579.919 127.508 579.919C136.67 583.323 138.021 587.17 138.13 588.926Z" fill="white"/>
<path opacity="0.1" d="M138.13 588.926C138.153 589.255 138.119 589.584 138.028 589.9C138.028 589.9 114.793 593.788 110.039 589.9C108.699 588.765 107.138 587.924 105.455 587.429C103.772 586.934 102.005 586.797 100.266 587.027C100.266 587.027 91.2667 587.272 89.7726 584.304C89.1477 583.051 89.3039 580.641 89.6911 578.258C93.1548 578.605 98.6222 579.47 100.768 581.533C104.015 584.671 109.516 587.803 112.892 588.048C115.534 588.218 131.338 588.722 138.13 588.926Z" fill="black"/>
<path opacity="0.1" d="M63.9034 594.414C63.9034 594.414 53.0366 598.417 45.5657 598.921C41.5993 599.187 39.5143 596.749 38.448 594.394C41.2122 595.326 45.0496 596.307 47.0667 595.408C49.4574 594.346 57.9334 593.658 62.6877 593.365C63.0495 593.763 63.4576 594.115 63.9034 594.414V594.414Z" fill="black"/>
<path d="M80.0269 271.804C71.0618 268.311 59.5295 256.771 62.4092 251.379C63.0487 250.018 63.4288 248.549 63.5298 247.049C63.7151 245.011 63.7423 242.963 63.6113 240.921C63.4094 237.578 63.008 234.249 62.4092 230.954C62.4092 230.954 90.3978 231.587 88.7678 235.72C88.2924 236.932 88.2177 239.035 88.3467 241.391C88.4758 243.747 88.8154 246.409 89.1685 248.662C89.6575 251.753 90.1465 254.109 90.1465 254.109C90.1465 254.109 88.435 256.512 87.4299 256.642C86.4247 256.771 92.8904 276.78 80.0269 271.804Z" fill="#CF6F80"/>
<path opacity="0.1" d="M57.118 577.026L56.9075 577.257C48.5401 567.113 38.4204 579.756 38.4204 579.756L38.271 579.49L38.7872 573.744L54.6594 569.611L56.9075 576.501L57.118 577.026Z" fill="black"/>
<path opacity="0.1" d="M119.011 569.611C119.011 569.611 112.899 569.482 109.639 572.369C106.379 575.255 90.6219 572.995 91.3011 572.369C91.5023 572.058 91.6237 571.703 91.6543 571.334L93.7937 569.611L118.842 568.869C118.937 569.325 119.011 569.611 119.011 569.611Z" fill="black"/>
<path d="M67.5303 489.948C67.075 491.076 66.7293 492.246 66.4979 493.44C65.9316 496.712 65.7741 500.042 66.0293 503.353C66.2806 508.119 66.0293 540.057 66.0293 540.057C66.0293 540.057 60.6571 548.574 57.6619 551.576C54.6668 554.579 63.7745 559.971 63.7745 559.971C65.1328 567.732 56.9012 576.501 56.9012 576.501C48.5338 566.357 38.4142 579.007 38.4142 579.007C38.4142 579.007 32.9129 569.475 31.541 566.071C30.169 562.667 36.9132 560.311 39.2835 558.929C41.6538 557.547 39.1681 549.398 39.1681 549.398C39.1681 549.398 37.1645 542.256 34.7874 535.74C32.4103 529.225 37.409 496.79 37.409 496.79C37.409 496.79 37.6671 491.03 38.2851 489.022C38.597 487.572 38.659 486.08 38.4685 484.61C38.4278 484.113 38.3802 483.698 38.3463 483.419C38.3123 483.139 38.2851 483.01 38.2851 483.01L38.3802 482.847L41.7761 476.501C41.7761 476.501 69.1603 485.951 67.5303 489.948Z" fill="#1D2366"/>
<path d="M119.011 568.863C119.011 568.863 112.899 568.733 109.639 571.586C106.379 574.439 90.622 572.212 91.3012 571.586C91.9804 570.959 91.926 566.323 91.926 566.323C82.6825 553.673 90.5677 548.54 90.5677 548.54C90.5677 548.54 86.4383 528.626 85.6912 521.239C85.1683 516.078 84.5231 502.209 84.1767 494.291C84.0273 490.887 83.939 488.545 83.939 488.545L91.4914 487.02L92.4626 486.823L110.678 483.16C110.678 483.16 111.181 486.564 111.52 489.349C111.689 490.538 111.785 491.736 111.805 492.937C111.683 494.298 111.805 498.56 111.805 498.56L112.423 511.339C112.02 512.68 111.811 514.072 111.805 515.472C111.928 517.099 114.298 540.397 114.298 540.397C114.298 540.397 118.421 554.3 117.015 555.3C115.609 556.301 119.011 568.863 119.011 568.863Z" fill="#1D2366"/>
<path opacity="0.1" d="M88.7676 235.72C88.2922 236.932 88.2175 239.035 88.3465 241.391C84.5975 243.654 80.2878 244.811 75.9123 244.729C71.5368 244.647 67.2732 243.33 63.6111 240.928C63.4094 237.582 63.008 234.252 62.4089 230.954C62.4089 230.954 90.3976 231.573 88.7676 235.72Z" fill="black"/>
<path d="M99.5866 220.673C99.592 223.127 99.2069 225.565 98.4456 227.897C96.744 233.121 93.2548 237.575 88.5946 240.47C83.9344 243.365 78.4034 244.515 72.9789 243.717C67.5545 242.92 62.586 240.225 58.9516 236.111C55.3172 231.996 53.2508 226.726 53.1177 221.232C53.1177 221.041 53.1177 220.864 53.1177 220.673C53.0649 217.581 53.627 214.509 54.7711 211.636C55.9153 208.764 57.6186 206.148 59.7816 203.943C61.9447 201.737 64.5242 199.985 67.3698 198.789C70.2154 197.593 73.27 196.977 76.3555 196.977C79.4411 196.977 82.4957 197.593 85.3413 198.789C88.1868 199.985 90.7664 201.737 92.9295 203.943C95.0925 206.148 96.7958 208.764 97.9399 211.636C99.0841 214.509 99.6462 217.581 99.5934 220.673H99.5866Z" fill="#CF6F80"/>
<path opacity="0.1" d="M80.0269 271.803C71.0618 268.311 59.5295 256.771 62.4092 251.379C63.0487 250.018 63.4288 248.549 63.5298 247.049L75.8024 257.159L83.3956 263.402L89.1685 248.669C89.6575 251.76 90.1465 254.116 90.1465 254.116C90.1465 254.116 88.435 256.519 87.4299 256.648C86.4247 256.778 92.8904 276.78 80.0269 271.803Z" fill="black"/>
<path d="M111.764 316.486L101.516 489.076L88.1494 489.954L53.5388 389.879L59.2167 271.068L60.412 245.966L75.8021 258.636L83.402 264.879L89.3448 249.717L100.395 259.372L111.764 316.486Z" fill="#1D2366"/>
<path opacity="0.1" d="M67.5301 489.948C67.0748 491.076 66.7291 492.245 66.4978 493.44C56.7719 491.935 47.3261 488.977 38.4751 484.664L38.2917 484.569L38.3529 483.473L38.3868 482.901L41.7827 476.556C41.7827 476.556 69.1601 485.951 67.5301 489.948Z" fill="black"/>
<path opacity="0.1" d="M91.6476 493.468C89.1613 493.891 86.6536 494.178 84.1359 494.325C83.9865 490.921 83.8982 488.579 83.8982 488.579L91.4506 487.054L91.6476 493.468Z" fill="black"/>
<path opacity="0.1" d="M111.479 489.383C106.65 490.642 99.1925 492.058 92.5162 491.173L92.4211 486.857L110.637 483.194C110.637 483.194 111.139 486.564 111.479 489.383Z" fill="black"/>
<path opacity="0.1" d="M92.3945 491.963C64.5484 496.729 39.0455 483.064 39.0455 483.064L39.29 478.435C39.29 478.435 39.9216 425.95 38.1694 421.926C36.4171 417.902 35.052 397.498 36.0436 394.366C37.0351 391.234 32.4236 344.271 32.4236 344.271L31.6765 325.208L4.33301 314.103L16.5581 288.559C18.2093 284.977 19.6295 281.293 20.8097 277.529C22.9355 270.898 32.8039 264.382 32.8039 264.382C32.8039 264.382 42.9236 257.874 46.9239 258.119C50.9242 258.364 56.1674 252.359 56.1674 252.359C60.0387 242.467 63.5432 246.946 63.5432 246.946C63.5432 247.416 63.5432 246.946 63.3531 248.41C61.9947 259.269 85.3175 293.583 85.6503 294.189L87.8712 348.424L90.1192 417.058L92.3945 491.963Z" fill="black"/>
<path d="M91.647 491.963C63.801 496.729 38.2913 483.064 38.2913 483.064L38.5425 478.435C38.5425 478.435 39.1742 425.95 37.4151 421.926C35.6561 417.902 34.2977 397.498 35.2961 394.366C36.2945 391.234 31.6761 344.271 31.6761 344.271L30.9222 325.208L3.56519 314.063L15.7903 288.518C17.4379 284.935 18.858 281.251 20.0419 277.488C22.1609 270.857 32.0361 264.342 32.0361 264.342C32.0361 264.342 42.1558 257.833 46.1493 258.078C50.1428 258.323 55.3928 252.318 55.3928 252.318C59.2709 242.426 63.5429 246.906 63.5429 246.906C63.5429 247.375 63.1354 247.586 63.3527 248.369C66.3411 258.902 84.57 293.542 84.9028 294.148L87.1509 348.383L89.399 417.017L91.647 491.963Z" fill="white"/>
<path opacity="0.1" d="M84.1426 295.694C81.1474 294.441 65.282 276.283 65.282 276.283V272.151C64.7047 270.789 61.2748 271.62 58.4902 272.573L59.6856 247.471L61.0439 248.601C64.0187 259.126 83.7962 295.088 84.1426 295.694Z" fill="black"/>
<path d="M84.8967 294.189C81.8947 292.936 66.0293 274.779 66.0293 274.779V270.646C65.452 269.284 62.0222 270.115 59.2375 271.068L60.4397 245.966L61.798 247.096C64.7796 257.622 84.5639 293.59 84.8967 294.189Z" fill="white"/>
<path opacity="0.1" d="M39.0455 384.746C39.419 384.746 58.4087 382.745 58.4087 382.745C58.4087 382.745 69.9071 405.409 69.1532 410.924C68.3993 416.439 67.0342 421.32 62.409 420.456C57.7838 419.591 37.5173 421.136 37.5173 421.136L39.0455 384.746Z" fill="black"/>
<path d="M38.2913 383.242C38.6649 383.242 57.6545 381.24 57.6545 381.24C57.6545 381.24 69.1461 403.911 68.399 409.419C67.6519 414.927 66.2732 419.816 61.6548 418.951C57.0365 418.086 36.7632 419.632 36.7632 419.632L38.2913 383.242Z" fill="white"/>
<path d="M52.6018 372.6C52.6018 372.6 70.0294 381.989 70.4029 384.855C70.7765 387.721 61.5329 383.602 59.5362 383.105C58.2219 382.788 56.8841 382.578 55.5359 382.479L42.2173 382.84L52.6018 372.6Z" fill="#CF6F80"/>
<path opacity="0.1" d="M79.2798 296.865C80.2926 296.865 81.1136 296.042 81.1136 295.026C81.1136 294.011 80.2926 293.188 79.2798 293.188C78.267 293.188 77.446 294.011 77.446 295.026C77.446 296.042 78.267 296.865 79.2798 296.865Z" fill="black"/>
<path d="M79.2798 296.116C80.2926 296.116 81.1136 295.293 81.1136 294.278C81.1136 293.262 80.2926 292.439 79.2798 292.439C78.267 292.439 77.446 293.262 77.446 294.278C77.446 295.293 78.267 296.116 79.2798 296.116Z" fill="#3F3D56"/>
<path opacity="0.1" d="M82.6548 376.44C83.6676 376.44 84.4886 375.617 84.4886 374.602C84.4886 373.587 83.6676 372.764 82.6548 372.764C81.642 372.764 80.821 373.587 80.821 374.602C80.821 375.617 81.642 376.44 82.6548 376.44Z" fill="black"/>
<path d="M82.6548 375.684C83.6676 375.684 84.4886 374.861 84.4886 373.846C84.4886 372.831 83.6676 372.008 82.6548 372.008C81.642 372.008 80.821 372.831 80.821 373.846C80.821 374.861 81.642 375.684 82.6548 375.684Z" fill="#3F3D56"/>
<path opacity="0.1" d="M81.1065 336.652C82.1192 336.652 82.9402 335.829 82.9402 334.814C82.9402 333.799 82.1192 332.976 81.1065 332.976C80.0937 332.976 79.2727 333.799 79.2727 334.814C79.2727 335.829 80.0937 336.652 81.1065 336.652Z" fill="black"/>
<path d="M81.1065 335.904C82.1192 335.904 82.9402 335.081 82.9402 334.065C82.9402 333.05 82.1192 332.227 81.1065 332.227C80.0937 332.227 79.2727 333.05 79.2727 334.065C79.2727 335.081 80.0937 335.904 81.1065 335.904Z" fill="#3F3D56"/>
<path d="M123.379 382.098C123.379 382.098 124.628 383.977 123.379 384.855C122.129 385.733 123.501 387.858 123.501 387.858C123.501 387.858 120.384 389.689 121.756 391.337C123.128 392.984 122.258 400.426 122.258 400.426L118.509 406.648C118.509 406.648 118.733 410.658 118.747 416.078C118.747 424.534 118.251 436.421 115.507 441.84L115.888 486.305C115.888 486.305 102.759 491.112 91.7701 489.648L90.1401 418.297C90.1401 418.297 92.5172 377.836 93.3934 370.074C93.9061 366.045 94.1149 361.982 94.0182 357.921C94.0182 357.921 93.6446 345.776 92.3882 340.138C92.3882 340.138 91.0298 315.717 90.894 308.956C90.8329 305.722 91.0027 296.286 91.1928 287.313C91.4034 277.502 91.6411 268.25 91.6411 268.25L89.1621 248.587C89.1621 248.587 91.6411 248.335 92.3882 249.336C92.7228 249.65 93.0867 249.93 93.4749 250.174V250.174C97.7536 253.074 112.872 261.993 112.872 261.993C112.872 261.993 121.239 265.329 123.243 270.108C125.247 274.888 126.639 278.278 127.61 279.64C128.581 281.002 129.111 287.401 129.111 287.401C129.111 287.401 131.991 299.18 134.239 301.174C136.487 303.169 138.13 315.86 138.13 315.86L118.265 331.519C118.265 331.519 116.519 357.567 116.146 358.575C115.772 359.583 123.379 382.098 123.379 382.098Z" fill="white"/>
<path d="M124.132 382.098C124.132 382.098 125.375 383.977 124.132 384.855C122.889 385.733 124.248 387.858 124.248 387.858C124.248 387.858 121.151 389.709 122.509 391.357C123.867 393.005 123.011 400.446 123.011 400.446L119.262 406.669C119.262 406.669 119.487 410.679 119.507 416.098C119.507 424.554 119.011 436.441 116.267 441.861L116.641 486.326C116.641 486.326 103.492 491.132 92.5167 489.669L90.8935 418.318C90.8935 418.318 93.2705 377.856 94.1467 370.095C94.66 366.065 94.8666 362.003 94.7647 357.942C94.7647 357.942 94.3912 345.796 93.1415 340.159C93.1415 340.159 91.7832 315.737 91.6405 308.977C91.5794 305.743 91.756 296.307 91.9394 287.333C92.1499 277.523 92.3876 268.27 92.3876 268.27L89.114 248.342C89.114 248.342 92.3876 248.342 93.1415 249.357C93.473 249.674 93.8373 249.955 94.2282 250.194C98.507 253.094 113.632 262.013 113.632 262.013C113.632 262.013 121.993 265.349 123.996 270.129C126 274.908 127.392 278.299 128.37 279.66C129.348 281.022 129.864 287.422 129.864 287.422C129.864 287.422 132.744 299.2 134.992 301.195C137.24 303.19 138.863 315.853 138.863 315.853L118.998 331.512C118.998 331.512 117.252 357.561 116.872 358.568C116.491 359.576 124.132 382.098 124.132 382.098Z" fill="white"/>
<path opacity="0.1" d="M100.341 274.05L102.134 279.293L92.6935 288.824C92.9041 279.02 93.1418 269.761 93.1418 269.761L89.8682 249.833C89.8682 249.833 93.1418 249.833 93.8956 250.848C94.2262 251.164 94.5907 251.442 94.9823 251.678L103.01 274.895L100.341 274.05Z" fill="black"/>
<path d="M99.5869 272.546L101.387 277.788L91.9462 287.32C92.1567 277.509 92.3944 268.256 92.3944 268.256L89.114 248.329C89.114 248.329 92.3944 248.329 93.1415 249.343C93.4746 249.658 93.8387 249.939 94.2282 250.18L102.263 273.39L99.5869 272.546Z" fill="white"/>
<path opacity="0.1" d="M99.5866 220.673C99.592 223.127 99.2069 225.565 98.4456 227.897C98.3173 227.917 98.1863 227.911 98.0603 227.88C97.9343 227.848 97.8159 227.791 97.7121 227.713C97.5355 221.586 94.5268 215.833 90.8253 210.938C89.7861 209.46 88.5262 208.151 87.0899 207.057C85.6377 205.964 83.8315 205.451 82.0232 205.62C79.9857 205.9 78.1859 207.288 76.128 207.465C73.4113 207.69 70.9799 205.804 68.2836 205.709C67.1874 205.719 66.1061 205.964 65.1118 206.427C64.1175 206.889 63.233 207.559 62.5174 208.391C61.1009 210.071 60.0485 212.028 59.4272 214.138C58.3593 217.336 57.7777 220.678 57.7021 224.05C57.6681 225.957 57.4847 228.346 55.7189 229.041C55.8518 227.639 55.6929 226.225 55.2521 224.887C54.8114 223.55 54.0984 222.319 53.1584 221.273L53.1177 221.232C53.1177 221.041 53.1177 220.864 53.1177 220.673C53.0649 217.581 53.627 214.509 54.7711 211.636C55.9153 208.764 57.6186 206.148 59.7816 203.943C61.9447 201.737 64.5242 199.985 67.3698 198.789C70.2154 197.593 73.27 196.977 76.3555 196.977C79.4411 196.977 82.4957 197.593 85.3413 198.789C88.1868 199.985 90.7664 201.737 92.9295 203.943C95.0925 206.148 96.7958 208.764 97.9399 211.636C99.0841 214.509 99.6462 217.581 99.5934 220.673H99.5866Z" fill="black"/>
<path d="M85.9762 183.684C82.4469 182.02 78.4329 181.705 74.6884 182.799C72.8071 183.357 71.0344 184.263 69.126 184.719C65.0509 185.706 60.2967 184.637 56.799 187.027C54.8566 188.389 53.6884 190.54 52.6017 192.63L49.885 197.818C48.4044 200.657 46.9102 203.544 46.2922 206.669C45.6741 209.794 46.0477 213.293 48.0241 215.806C49.4639 217.637 51.5897 218.788 53.1518 220.51C54.0877 221.558 54.7975 222.788 55.237 224.124C55.6764 225.459 55.8359 226.871 55.7055 228.272C57.4782 227.591 57.648 225.194 57.6887 223.288C57.7644 219.916 58.3459 216.574 59.4138 213.375C60.0337 211.265 61.0862 209.308 62.504 207.629C63.2202 206.797 64.1048 206.128 65.099 205.665C66.0932 205.203 67.1742 204.958 68.2702 204.946C70.9869 205.042 73.4251 206.921 76.1146 206.696C78.1522 206.526 79.9588 205.13 82.0099 204.858C83.8184 204.686 85.6255 205.199 87.0765 206.294C88.5124 207.387 89.7703 208.696 90.8051 210.175C94.5134 215.07 97.5221 220.81 97.6987 226.951C98.4662 227.516 99.5732 226.781 99.9536 225.909C100.334 225.038 100.347 224.016 100.83 223.186C101.387 222.226 102.453 221.715 103.288 220.993C105.407 219.162 105.937 216.078 105.856 213.28C105.774 210.482 105.231 207.642 105.76 204.892C106.08 203.203 106.8 201.624 107.194 199.956C107.587 198.288 107.635 196.416 106.705 194.979C105.346 192.868 102.487 192.453 99.9943 192.256C97.1622 192.011 94.6289 192.324 92.8223 189.934C91.9743 188.687 91.0198 187.516 89.9697 186.435C89.6098 186.081 85.9762 183.834 85.9762 183.684Z" fill="#512E4E"/>
<path opacity="0.1" d="M12.1569 327.257L5.05958 314.104L2.81152 334.399C2.81152 334.399 4.0612 343.413 3.80991 344.795C3.55861 346.177 8.93085 358.568 8.93085 358.568C8.93085 358.568 26.6776 390.254 33.9244 391.888L58.4085 374.35L51.9157 366.085C51.9157 366.085 49.6676 365.206 49.1039 366.085C49.1039 366.085 37.0486 345.292 35.7989 343.788C34.5492 342.283 34.7937 339.281 34.7937 339.281C34.7937 339.281 32.9192 337.279 33.5441 335.4C34.1689 333.521 29.9241 327.005 29.9241 327.005L33.7954 323.376L12.1569 327.257Z" fill="black"/>
<path d="M5.43337 312.606L3.55885 314.103L1.31079 334.399C1.31079 334.399 2.56047 343.413 2.30917 344.795C2.05788 346.177 7.43694 358.568 7.43694 358.568C7.43694 358.568 25.1769 390.254 32.4237 391.888L56.9146 374.35L50.4149 366.085C50.4149 366.085 48.1669 365.206 47.6032 366.085C47.6032 366.085 35.5479 345.292 34.2982 343.788C33.0485 342.283 33.2998 339.28 33.2998 339.28C33.2998 339.28 31.4253 337.279 32.0501 335.4C32.675 333.521 28.4234 327.005 28.4234 327.005L32.2946 323.376L5.43337 312.606Z" fill="white"/>
<path opacity="0.1" d="M121.755 392.113C123.113 393.767 122.258 401.195 122.258 401.195L118.509 407.418C118.509 407.418 118.733 411.435 118.746 416.847L112.444 418.822C111.874 419 111.27 419.039 110.682 418.936C110.095 418.833 109.54 418.59 109.065 418.228C108.589 417.867 108.207 417.396 107.95 416.856C107.693 416.316 107.569 415.723 107.587 415.125L108.674 379.987L123.378 385.624C122.129 386.496 123.5 388.634 123.5 388.634C123.5 388.634 120.383 390.458 121.755 392.113Z" fill="black"/>
<path d="M122.509 391.357C123.867 393.011 123.012 400.446 123.012 400.446L119.263 406.669C119.263 406.669 119.487 410.679 119.507 416.098L113.089 418.107C112.531 418.28 111.94 418.318 111.365 418.217C110.789 418.115 110.246 417.877 109.781 417.523C109.316 417.169 108.942 416.708 108.691 416.179C108.439 415.651 108.317 415.07 108.335 414.485L109.428 379.238L124.139 384.875C122.883 385.747 124.254 387.878 124.254 387.878C124.254 387.878 121.151 389.709 122.509 391.357Z" fill="white"/>
<path d="M127.378 374.609C127.378 374.609 126.38 381.002 123.881 381.376C121.381 381.751 120.261 391.718 117.768 391.364C115.275 391.01 116.926 382.098 117.014 380.368C117.102 378.639 114.297 371.477 116.396 369.85C118.495 368.222 125.137 369.85 125.137 369.85L127.378 374.609Z" fill="#CF6F80"/>
<path opacity="0.1" d="M132.696 325.378L137.41 315.846C137.41 315.846 139.284 323.111 139.284 326.992C139.284 330.872 141.906 331.254 141.906 331.254C141.906 331.254 144.779 334.658 143.264 337.136C141.75 339.614 141.139 345.782 141.139 345.782C141.139 345.782 141.634 357.554 139.386 359.181C137.138 360.808 136.67 364.696 136.67 364.696C136.67 364.696 132.54 372.083 132.669 373.839C132.798 375.596 126.924 387.49 126.924 387.49C126.924 387.49 129.796 372.709 113.055 366.323C113.055 366.323 112.926 361.305 114.175 359.93C115.425 358.555 117.374 357.928 116.152 350.977C114.929 344.026 115.799 335.72 115.799 334.052C115.799 332.384 119.548 321.981 119.548 321.981L132.696 325.378Z" fill="black"/>
<path d="M134.734 314.485L138.849 315.846C138.849 315.846 140.731 323.111 140.731 326.991C140.731 330.872 143.352 331.253 143.352 331.253C143.352 331.253 146.225 334.658 144.711 337.136C143.196 339.614 142.592 345.782 142.592 345.782C142.592 345.782 143.087 357.554 140.839 359.181C138.591 360.808 138.089 364.696 138.089 364.696C138.089 364.696 133.966 372.083 134.095 373.839C134.224 375.596 128.343 387.49 128.343 387.49C128.343 387.49 131.222 372.709 114.474 366.323C114.474 366.323 114.352 361.305 115.601 359.93C116.851 358.555 118.8 357.928 117.578 350.977C116.355 344.026 117.225 335.72 117.225 334.052C117.225 332.384 120.974 321.981 120.974 321.981L134.734 314.485Z" fill="white"/>
<path opacity="0.1" d="M43.8267 561.537C43.8267 561.537 50.3875 557.404 54.6934 560.407C58.9994 563.409 43.8267 561.537 43.8267 561.537Z" fill="black"/>
<path opacity="0.1" d="M94.8054 548.758C94.8054 548.758 100.612 548.009 105.489 553.271C110.365 558.534 94.8054 548.758 94.8054 548.758Z" fill="black"/>
<g opacity="0.1">
<path d="M103.302 219.502C102.466 220.224 101.393 220.741 100.836 221.701C100.361 222.525 100.347 223.54 99.9669 224.425C99.5866 225.31 98.4795 226.031 97.712 225.473C97.5355 219.346 94.5199 213.593 90.8185 208.691C89.7836 207.211 88.5257 205.902 87.0898 204.81C85.6362 203.714 83.827 203.202 82.0164 203.373C79.9789 203.653 78.1859 205.041 76.128 205.212C73.4113 205.443 70.973 203.557 68.2767 203.462C67.181 203.473 66.1003 203.718 65.107 204.182C64.1136 204.646 63.2307 205.317 62.5174 206.151C61.0995 207.828 60.0469 209.783 59.4271 211.891C58.3599 215.09 57.7783 218.431 57.702 221.803C57.6613 223.703 57.4847 226.072 55.7324 226.78C55.7732 227.283 55.7732 227.789 55.7324 228.292C57.4983 227.611 57.6749 225.214 57.7156 223.308C57.7913 219.936 58.3728 216.594 59.4407 213.395C60.0606 211.285 61.1131 209.328 62.5309 207.649C63.2458 206.818 64.1292 206.148 65.1223 205.686C66.1153 205.223 67.1953 204.978 68.2903 204.967C71.007 205.062 73.452 206.941 76.1416 206.716C78.1791 206.546 79.9857 205.15 82.03 204.878C83.8406 204.707 85.6497 205.219 87.1034 206.315C88.5393 207.407 89.7972 208.716 90.832 210.195C94.5335 215.091 97.5491 220.83 97.7256 226.971C98.4931 227.536 99.6001 226.801 99.9805 225.929C100.361 225.058 100.374 224.037 100.85 223.206C101.407 222.246 102.48 221.735 103.315 221.014C105.434 219.182 105.964 216.098 105.882 213.3C105.882 213.211 105.882 213.123 105.882 213.041C105.753 215.465 105.108 217.936 103.302 219.502Z" fill="black"/>
<path d="M53.1652 219.019C51.6031 217.297 49.4705 216.146 48.0375 214.321C46.8308 212.706 46.1416 210.762 46.0611 208.745C45.8473 211.265 46.5492 213.777 48.0375 215.819C49.4705 217.651 51.6031 218.801 53.1652 220.524C54.665 222.209 55.5655 224.344 55.7257 226.597C55.8297 225.226 55.6565 223.848 55.2165 222.546C54.7765 221.244 54.0788 220.044 53.1652 219.019V219.019Z" fill="black"/>
<path d="M107.207 198.465C106.806 200.133 106.093 201.719 105.767 203.401C105.574 204.524 105.504 205.666 105.557 206.805C105.579 206.156 105.65 205.51 105.767 204.871C106.093 203.183 106.806 201.603 107.207 199.935C107.441 199.015 107.516 198.062 107.431 197.117C107.389 197.571 107.314 198.021 107.207 198.465V198.465Z" fill="black"/>
</g>
<g clip-path="url(#clip0_445_2665)">
<path d="M636.665 564.186V562.302C640.41 562.302 644.211 562.224 647.966 562.074L648.041 563.958C644.261 564.108 640.435 564.185 636.665 564.186ZM625.294 563.969C621.528 563.822 617.709 563.592 613.94 563.299L614.088 561.421C617.832 561.716 621.628 561.94 625.368 562.086L625.294 563.969ZM659.393 563.274L659.243 561.396C662.981 561.097 666.763 560.717 670.485 560.266L670.711 562.136C666.964 562.59 663.157 562.971 659.393 563.272V563.274ZM602.621 562.176C598.866 561.726 595.076 561.195 591.357 560.598L591.655 558.738C595.35 559.331 599.114 559.858 602.844 560.304L602.621 562.176ZM681.973 560.547L681.673 558.687C685.366 558.09 689.106 557.407 692.785 556.658L693.161 558.503C689.456 559.257 685.69 559.945 681.972 560.547H681.973ZM580.165 558.569C576.458 557.816 572.725 556.982 569.063 556.086L569.511 554.256C573.147 555.147 576.857 555.977 580.538 556.722L580.165 558.569ZM704.262 556.01L703.811 554.181C707.458 553.284 711.13 552.297 714.725 551.261L715.25 553.072C711.629 554.12 707.932 555.11 704.262 556.014V556.01ZM558.072 553.156C554.44 552.107 550.785 550.972 547.208 549.781L547.803 547.992C551.356 549.175 554.987 550.302 558.594 551.344L558.072 553.156ZM726.108 549.681L725.511 547.891C729.066 546.702 732.647 545.425 736.153 544.092L736.822 545.852C733.292 547.195 729.687 548.482 726.107 549.678L726.108 549.681ZM536.461 545.958C532.927 544.618 529.369 543.188 525.883 541.701L526.621 539.968C530.084 541.443 533.62 542.865 537.129 544.195L536.461 545.958ZM747.344 541.614L746.604 539.88C750.047 538.409 753.504 536.85 756.878 535.245L757.687 536.947C754.29 538.563 750.813 540.133 747.344 541.614V541.614ZM515.489 537.018C512.068 535.393 508.638 533.678 505.295 531.921L506.172 530.253C509.492 531.999 512.899 533.702 516.296 535.316L515.489 537.018ZM767.841 531.86L766.964 530.193C770.28 528.447 773.604 526.614 776.838 524.74L777.78 526.37C774.523 528.254 771.178 530.102 767.839 531.859L767.841 531.86ZM495.318 526.417C492.036 524.519 488.758 522.534 485.574 520.516L486.582 518.925C489.743 520.929 493 522.901 496.26 524.787L495.318 526.417ZM787.496 520.482L786.489 518.891C789.646 516.891 792.812 514.794 795.899 512.659L796.97 514.209C793.862 516.358 790.675 518.469 787.496 520.483V520.482ZM476.078 514.229C472.964 512.077 469.858 509.836 466.845 507.569L467.975 506.062C470.968 508.314 474.054 510.54 477.147 512.678L476.078 514.229ZM806.19 507.558L805.06 506.051C808.046 503.805 811.036 501.46 813.947 499.081L815.139 500.54C812.209 502.934 809.199 505.295 806.193 507.556L806.19 507.558ZM457.891 500.544C454.967 498.155 452.053 495.672 449.228 493.167L450.477 491.754C453.285 494.243 456.181 496.709 459.085 499.081L457.891 500.544ZM823.794 493.172L822.545 491.759C825.351 489.271 828.145 486.693 830.848 484.096L832.153 485.455C829.431 488.068 826.619 490.663 823.794 493.168V493.172ZM440.863 485.447C438.146 482.837 435.44 480.13 432.818 477.404L434.175 476.097C436.78 478.806 439.468 481.495 442.167 484.087L440.863 485.447ZM840.198 477.411L838.841 476.105C841.438 473.404 844.021 470.61 846.51 467.8L847.922 469.051C845.413 471.877 842.816 474.692 840.2 477.411H840.198ZM425.1 469.048C422.588 466.216 420.109 463.301 417.725 460.389L419.184 459.196C421.55 462.091 424.014 464.986 426.509 467.797L425.1 469.048ZM855.296 460.387L853.837 459.194C856.217 456.284 858.565 453.29 860.819 450.298L862.325 451.429C860.058 454.443 857.692 457.457 855.297 460.384L855.296 460.387ZM410.707 451.446C408.437 448.431 406.198 445.331 404.053 442.23L405.602 441.157C407.733 444.239 409.957 447.318 412.212 450.313L410.707 451.446ZM868.988 442.198L867.439 441.127C869.577 438.033 871.676 434.859 873.686 431.694L875.276 432.702C873.256 435.892 871.14 439.086 868.987 442.201L868.988 442.198ZM397.777 432.76C395.759 429.577 393.777 426.308 391.887 423.045L393.516 422.103C395.394 425.344 397.363 428.591 399.367 431.753L397.777 432.76ZM881.185 422.963L879.556 422.021C881.439 418.762 883.281 415.427 885.026 412.111L886.693 412.989C884.937 416.327 883.084 419.683 881.186 422.965L881.185 422.963ZM386.394 413.101C384.64 409.768 382.928 406.352 381.309 402.949L383.01 402.14C384.619 405.521 386.32 408.913 388.062 412.224L386.394 413.101ZM891.79 402.794L890.088 401.984C891.701 398.593 893.267 395.118 894.741 391.659L896.474 392.399C894.992 395.877 893.412 399.378 891.79 402.793L891.79 402.794ZM376.633 392.606C375.149 389.136 373.72 385.597 372.385 382.084L374.145 381.414C375.472 384.9 376.892 388.419 378.364 391.865L376.633 392.606ZM900.736 381.818L898.975 381.15C900.31 377.626 901.59 374.033 902.778 370.474L904.567 371.071C903.368 374.655 902.08 378.27 900.736 381.818H900.736ZM368.557 371.368C367.358 367.789 366.217 364.132 365.167 360.507L366.976 359.983C368.02 363.583 369.154 367.213 370.345 370.77L368.557 371.368ZM907.943 360.204L906.133 359.681C907.169 356.087 908.154 352.413 909.052 348.762L910.88 349.211C909.976 352.888 908.988 356.586 907.943 360.204H907.943ZM362.215 349.517C361.31 345.848 360.469 342.115 359.714 338.418L361.56 338.041C362.313 341.715 363.145 345.423 364.043 349.067L362.215 349.517ZM913.367 338.11L911.52 337.733C912.265 334.059 912.946 330.323 913.543 326.618L915.403 326.917C914.801 330.65 914.117 334.416 913.367 338.112V338.11ZM357.661 327.225C357.058 323.506 356.521 319.716 356.065 315.96L357.934 315.734C358.386 319.465 358.92 323.229 359.52 326.924L357.661 327.225ZM916.983 315.646L915.113 315.421C915.561 311.692 915.939 307.908 916.234 304.176L918.112 304.325C917.814 308.082 917.433 311.892 916.982 315.646H916.983ZM354.93 304.641C354.626 300.878 354.395 297.058 354.242 293.283L356.125 293.207C356.278 296.955 356.508 300.751 356.81 304.49L354.93 304.641ZM918.796 292.969L916.912 292.895C917.059 289.141 917.135 285.339 917.135 281.591V280.967H919.018V281.587C919.017 285.363 918.942 289.189 918.793 292.969H918.796ZM355.883 281.907H354V281.59C354 277.917 354.072 274.193 354.213 270.532L356.096 270.605C355.957 274.242 355.885 277.939 355.885 281.594L355.883 281.907ZM916.884 269.672C916.729 265.932 916.495 262.137 916.188 258.39L918.066 258.237C918.374 262.005 918.609 265.828 918.766 269.594L916.884 269.672ZM356.755 259.322L354.877 259.175C355.172 255.407 355.549 251.593 355.995 247.851L357.865 248.074C357.422 251.791 357.049 255.575 356.754 259.322L356.755 259.322ZM915.042 247.147C914.588 243.432 914.051 239.668 913.441 235.959L915.301 235.655C915.911 239.388 916.453 243.177 916.909 246.919L915.042 247.147ZM359.424 236.879L357.564 236.582C358.161 232.851 358.842 229.084 359.589 225.385L361.435 225.762C360.693 229.436 360.017 233.178 359.423 236.884L359.424 236.879ZM911.395 224.842C910.642 221.161 909.8 217.452 908.9 213.821L910.728 213.368C911.634 217.025 912.479 220.759 913.24 224.465L911.395 224.842ZM363.894 214.726L362.065 214.278C362.96 210.611 363.948 206.912 364.989 203.281L366.799 203.802C365.76 207.411 364.784 211.086 363.895 214.728L363.894 214.726ZM905.96 202.906C904.912 199.308 903.775 195.679 902.579 192.121L904.368 191.521C905.571 195.101 906.716 198.756 907.771 202.378L905.96 202.906ZM370.144 193.01L368.354 192.415C369.547 188.828 370.83 185.211 372.17 181.663L373.932 182.329C372.602 185.852 371.327 189.446 370.143 193.01L370.144 193.01ZM898.759 181.483C897.421 177.978 895.997 174.464 894.528 171.036L896.258 170.294C897.738 173.744 899.172 177.282 900.519 180.81L898.759 181.483ZM378.155 171.815L376.421 171.078C377.901 167.597 379.474 164.097 381.095 160.678L382.796 161.484C381.187 164.882 379.624 168.358 378.154 171.815L378.155 171.815ZM889.879 160.768C888.267 157.391 886.564 154 884.817 150.688L886.482 149.809C888.242 153.141 889.957 156.555 891.579 159.955L889.879 160.768ZM387.852 151.353L386.184 150.477C387.94 147.131 389.789 143.772 391.68 140.492L393.311 141.434C391.433 144.693 389.596 148.029 387.853 151.353L387.852 151.353ZM879.348 140.82C877.465 137.577 875.493 134.333 873.486 131.176L875.076 130.166C877.097 133.344 879.081 136.61 880.978 139.875L879.348 140.82ZM399.165 131.753L397.573 130.746C399.594 127.551 401.706 124.354 403.852 121.244L405.403 122.314C403.272 125.404 401.173 128.579 399.166 131.754L399.165 131.753ZM867.24 121.774C865.104 118.694 862.876 115.616 860.621 112.627L862.128 111.492C864.399 114.506 866.641 117.6 868.791 120.701L867.24 121.774ZM412.012 113.136L410.506 112.005C412.775 108.983 415.136 105.968 417.523 103.041L418.983 104.233C416.612 107.139 414.266 110.135 412.014 113.137L412.012 113.136ZM853.637 103.75C851.263 100.85 848.793 97.9603 846.304 95.158L847.71 93.9061C850.218 96.7273 852.701 99.6371 855.094 102.556L853.637 103.75ZM426.311 95.6158L424.898 94.3676C427.399 91.5417 429.993 88.7261 432.608 85.9982L433.967 87.3028C431.369 90.0119 428.788 92.8096 426.308 95.6158H426.311ZM838.636 86.8629C836.03 84.1576 833.338 81.4729 830.632 78.8815L831.935 77.5213C834.657 80.1306 837.367 82.8331 839.99 85.5564L838.636 86.8629ZM441.953 79.3035L440.647 77.9462C443.365 75.3303 446.175 72.7323 448.998 70.2219L450.249 71.6349C447.44 74.1246 444.649 76.7056 441.949 79.3045L441.953 79.3035ZM822.32 71.2242C819.506 68.7355 816.606 66.2732 813.703 63.905L814.893 62.445C817.813 64.8282 820.732 67.3075 823.567 69.8131L822.32 71.2242ZM458.838 64.3007L457.644 62.8434C460.563 60.4489 463.577 58.0855 466.582 55.8172L467.712 57.3244C464.727 59.5747 461.74 61.9231 458.838 64.3006L458.838 64.3007ZM804.792 56.9372C801.788 54.6812 798.698 52.4591 795.613 50.3302L796.682 48.7797C799.79 50.9227 802.897 53.1599 805.923 55.431L804.792 56.9372ZM476.865 50.7032L475.791 49.1546C478.899 47.0022 482.081 44.8884 485.258 42.8698L486.268 44.4598C483.112 46.4643 479.948 48.564 476.864 50.7023L476.865 50.7032ZM786.174 44.0953C782.998 42.0888 779.74 40.1211 776.488 38.2456L777.43 36.6141C780.702 38.498 783.982 40.4828 787.18 42.5024L786.174 44.0953ZM495.913 38.6035L494.971 36.9739C498.227 35.0853 501.57 33.2343 504.906 31.4737L505.785 33.1401C502.467 34.8883 499.147 36.7261 495.912 38.6035L495.913 38.6035ZM766.573 32.7906C763.247 31.047 759.839 29.3477 756.442 27.7397L757.248 26.0366C760.667 27.6559 764.098 29.3665 767.446 31.1233L766.573 32.7906ZM515.859 28.0807L515.048 26.3795C518.444 24.7602 521.922 23.1862 525.387 21.7016L526.128 23.433C522.687 24.9072 519.231 26.4709 515.858 28.0807H515.859ZM746.11 23.1014C742.649 21.631 739.112 20.2133 735.597 18.8851L736.263 17.1227C739.801 18.4584 743.362 19.8874 746.846 21.3672L746.11 23.1014ZM536.575 19.2063L535.904 17.4458C539.428 16.1016 543.031 14.8083 546.613 13.6091L547.212 15.3989C543.653 16.5885 540.075 17.8715 536.575 19.2063L536.575 19.2063ZM724.922 15.0993C721.363 13.919 717.731 12.7953 714.127 11.76L714.648 9.94954C718.277 10.9914 721.931 12.1227 725.514 13.3115L724.922 15.0993ZM557.996 12.0209L557.469 10.2124C561.091 9.15828 564.787 8.16355 568.454 7.25643L568.906 9.08481C565.264 9.98434 561.593 10.9725 557.995 12.0209L557.996 12.0209ZM703.205 8.86344C699.569 7.9761 695.86 7.15092 692.176 6.40959L692.548 4.56237C696.255 5.30842 699.987 6.14019 703.652 7.03318L703.205 8.86344ZM579.928 6.59516L579.551 4.74982C583.243 3.99624 587.007 3.30201 590.738 2.69349L591.042 4.55295C587.333 5.15487 583.595 5.84252 579.927 6.59327L579.928 6.59516ZM681.056 4.40412C677.352 3.8135 673.587 3.28976 669.864 2.84986L670.085 0.979092C673.832 1.42276 677.619 1.94933 681.352 2.54466L681.056 4.40412ZM602.226 2.96007L601.998 1.09025C605.745 0.634332 609.551 0.242468 613.314 -0.058023L613.467 1.81933C609.729 2.12077 605.947 2.50698 602.226 2.95818V2.96007ZM658.62 1.74492C654.886 1.45385 651.087 1.23437 647.34 1.09213L647.411 -0.791822C651.187 -0.648642 655.007 -0.42728 658.766 -0.132441L658.62 1.74492ZM624.746 1.12793L624.668 -0.756025C628.435 -0.911452 632.26 -0.993406 636.04 -1V0.883954C632.288 0.890548 628.486 0.972496 624.745 1.12604L624.746 1.12793Z" fill="#F4F7FD"/>
<path d="M765.212 623.22H414.893C397.383 623.201 383.123 609.777 383.104 593.295V115.479C383.124 98.9962 397.384 85.5721 414.892 85.5537H765.211C782.721 85.5721 796.981 98.9962 797 115.479V593.294C796.98 609.778 782.72 623.202 765.212 623.22Z" fill="#3F3D56"/>
<path d="M768.691 594.458H411.412C405.749 594.452 401.137 590.357 401.13 585.328V126.609C401.137 121.58 405.749 117.485 411.412 117.479H768.691C774.354 117.485 778.966 121.58 778.973 126.609V585.328C778.966 590.357 774.354 594.452 768.691 594.458Z" fill="white"/>
<path d="M478.847 320.754V302.857C478.847 301.848 478.446 300.882 477.734 300.169C477.021 299.456 476.055 299.056 475.047 299.056C474.039 299.056 473.073 299.456 472.36 300.169C471.648 300.882 471.247 301.848 471.247 302.857V320.754C469.748 321.595 468.57 322.909 467.898 324.491C467.225 326.073 467.096 327.833 467.53 329.497C467.965 331.16 468.938 332.632 470.298 333.683C471.658 334.734 473.328 335.304 475.047 335.304C476.766 335.304 478.436 334.734 479.796 333.683C481.156 332.632 482.129 331.16 482.564 329.497C482.998 327.833 482.869 326.073 482.196 324.491C481.524 322.909 480.346 321.595 478.847 320.754V320.754Z" fill="#4B7CA0"/>
<path d="M473.733 302.856C473.761 302.532 473.909 302.23 474.149 302.009C474.389 301.789 474.703 301.667 475.028 301.667C475.354 301.667 475.667 301.789 475.907 302.009C476.147 302.23 476.295 302.532 476.323 302.856V314.405H473.733V302.856Z" fill="white"/>
<path opacity="0.999" d="M721.044 315.917H508.148V318.432H721.044V315.917Z" fill="#E6E6E6"/>
<path d="M577.937 315.917H508.148V318.432H577.937V315.917Z" fill="#4B7CA0"/>
<path d="M721.044 386.569H508.148V389.084H721.044V386.569Z" fill="#E6E6E6"/>
<path d="M631.247 386.569H508.148V389.084H631.247V386.569Z" fill="#4B7CA0"/>
<path d="M721.044 452.522H508.148V455.038H721.044V452.522Z" fill="#E6E6E6"/>
<path d="M689.632 452.522H508.148V455.038H689.632V452.522Z" fill="#4B7CA0"/>
<path d="M721.044 518.111H508.148V520.626H721.044V518.111Z" fill="#E6E6E6"/>
<path d="M577.937 518.111H508.148V520.626H577.937V518.111Z" fill="#4B7CA0"/>
<path d="M475.047 331.26C477.127 331.26 478.814 329.573 478.814 327.492C478.814 325.411 477.127 323.724 475.047 323.724C472.967 323.724 471.28 325.411 471.28 327.492C471.28 329.573 472.967 331.26 475.047 331.26Z" fill="white"/>
<path d="M484.026 384.011C484.088 385.101 483.927 386.192 483.553 387.217C483.179 388.243 482.599 389.181 481.85 389.975C481.101 390.769 480.197 391.401 479.195 391.833C478.193 392.266 477.113 392.488 476.021 392.488C474.93 392.488 473.85 392.266 472.848 391.833C471.845 391.401 470.942 390.769 470.192 389.975C469.443 389.181 468.863 388.243 468.489 387.217C468.115 386.192 467.954 385.101 468.017 384.011C468.017 379.328 475.55 374.591 475.55 366.113C475.55 361.691 484.026 379.328 484.026 384.011Z" fill="#4B7CA0"/>
<path d="M480.824 383.87C480.862 384.524 480.765 385.179 480.541 385.794C480.316 386.41 479.968 386.973 479.519 387.449C479.069 387.925 478.527 388.305 477.925 388.564C477.324 388.823 476.676 388.957 476.021 388.957C475.366 388.957 474.718 388.823 474.117 388.564C473.515 388.305 472.973 387.925 472.523 387.449C472.074 386.973 471.726 386.41 471.501 385.794C471.277 385.179 471.18 384.524 471.218 383.87C471.218 381.06 475.739 378.217 475.739 373.13C475.739 370.476 480.824 381.06 480.824 383.87Z" fill="white"/>
<path d="M475.042 438.232C468.592 438.232 463.394 443.083 463.394 449.083C463.407 450.872 463.869 452.629 464.738 454.192C465.607 455.756 466.854 457.076 468.366 458.032V461.546C468.38 461.973 468.564 462.376 468.876 462.668C469.188 462.959 469.604 463.115 470.031 463.1L470.032 463.1H480.052C480.479 463.115 480.894 462.96 481.207 462.669C481.519 462.378 481.704 461.975 481.719 461.548L481.719 461.546V458.032C483.233 457.079 484.484 455.759 485.354 454.195C486.225 452.631 486.688 450.873 486.7 449.083C486.7 443.083 481.493 438.232 475.042 438.232Z" fill="#4B7CA0"/>
<path d="M475.043 441.086C470.073 441.086 466.068 444.824 466.068 449.447C466.079 450.825 466.435 452.178 467.104 453.383C467.774 454.588 468.735 455.605 469.899 456.341V459.048C469.905 459.211 469.942 459.371 470.01 459.52C470.077 459.668 470.173 459.802 470.293 459.913C470.412 460.024 470.552 460.111 470.704 460.168C470.857 460.225 471.019 460.252 471.182 460.246H471.183H478.903C479.232 460.258 479.552 460.138 479.793 459.914C480.034 459.69 480.175 459.379 480.187 459.05V459.048V456.341C481.354 455.607 482.317 454.59 482.988 453.385C483.659 452.18 484.016 450.826 484.025 449.447C484.025 444.824 480.013 441.086 475.043 441.086Z" fill="white"/>
<path d="M470.371 464.55C470.121 464.55 469.882 464.649 469.705 464.825C469.528 465.002 469.429 465.242 469.429 465.492C469.429 465.741 469.528 465.981 469.705 466.158C469.882 466.334 470.121 466.434 470.371 466.434H479.788C480.038 466.434 480.277 466.334 480.454 466.158C480.63 465.981 480.73 465.741 480.73 465.492C480.73 465.242 480.63 465.002 480.454 464.825C480.277 464.649 480.038 464.55 479.788 464.55H470.371Z" fill="#4B7CA0"/>
<path d="M470.371 468.318C470.121 468.318 469.882 468.417 469.705 468.593C469.528 468.77 469.429 469.01 469.429 469.259C469.429 469.509 469.528 469.749 469.705 469.926C469.882 470.102 470.121 470.201 470.371 470.201H479.788C480.038 470.201 480.277 470.102 480.454 469.926C480.63 469.749 480.73 469.509 480.73 469.259C480.73 469.01 480.63 468.77 480.454 468.593C480.277 468.417 480.038 468.318 479.788 468.318H470.371Z" fill="#4B7CA0"/>
<path d="M481.618 505.526L481.897 504.828C481.999 504.574 482.037 504.299 482.008 504.027C481.978 503.755 481.883 503.494 481.73 503.268C481.576 503.041 481.37 502.856 481.128 502.727C480.887 502.599 480.617 502.532 480.344 502.532H468.951C468.508 502.532 468.082 502.708 467.768 503.022C467.454 503.336 467.278 503.762 467.278 504.206V505.526H481.618Z" fill="#4B7CA0"/>
<path d="M480.109 515.475H480.108C479.835 515.475 479.566 515.408 479.324 515.279C479.083 515.151 478.876 514.966 478.723 514.739C478.57 514.513 478.474 514.252 478.445 513.98C478.416 513.708 478.454 513.433 478.555 513.179L480.487 508.352H467.278V518.982C467.278 519.202 467.321 519.419 467.405 519.622C467.489 519.825 467.613 520.01 467.768 520.165C467.923 520.321 468.108 520.444 468.311 520.528C468.514 520.612 468.731 520.656 468.951 520.656H470.784C471.228 520.656 471.653 520.832 471.967 521.146C472.281 521.46 472.457 521.885 472.457 522.329V529.108C472.457 529.485 472.584 529.851 472.818 530.147C473.052 530.443 473.379 530.651 473.746 530.737C474.113 530.824 474.498 530.784 474.839 530.624C475.181 530.464 475.458 530.194 475.627 529.857L481.605 517.897C481.733 517.642 481.793 517.358 481.78 517.073C481.767 516.788 481.682 516.511 481.532 516.269C481.382 516.026 481.172 515.826 480.923 515.687C480.674 515.548 480.394 515.475 480.109 515.475V515.475Z" fill="#4B7CA0"/>
<path d="M468.958 393.901C468.584 393.901 468.225 394.05 467.96 394.315C467.695 394.58 467.546 394.94 467.546 395.314C467.546 395.689 467.695 396.048 467.96 396.313C468.225 396.578 468.584 396.727 468.958 396.727H482.142C482.517 396.727 482.876 396.578 483.141 396.313C483.406 396.048 483.555 395.689 483.555 395.314C483.555 394.94 483.406 394.58 483.141 394.315C482.876 394.05 482.517 393.901 482.142 393.901H468.958Z" fill="#4B7CA0"/>
<path d="M468.958 399.553C468.584 399.553 468.225 399.702 467.96 399.967C467.695 400.232 467.546 400.591 467.546 400.966C467.546 401.341 467.695 401.7 467.96 401.965C468.225 402.23 468.584 402.379 468.958 402.379H482.142C482.517 402.379 482.876 402.23 483.141 401.965C483.406 401.7 483.555 401.341 483.555 400.966C483.555 400.591 483.406 400.232 483.141 399.967C482.876 399.702 482.517 399.553 482.142 399.553H468.958Z" fill="#4B7CA0"/>
<path d="M502.516 164H502.324C494.683 164 487.925 168.043 484.038 174.01C480.15 168.043 473.393 164 465.751 164H465.559C459.825 164.055 454.343 166.37 450.306 170.444C446.269 174.517 444.003 180.019 444 185.754C444 192.875 447.119 202.98 453.201 211.295C464.788 227.139 484.038 241 484.038 241C484.038 241 503.287 227.141 514.872 211.295C520.956 202.98 524.073 192.875 524.073 185.754C524.07 180.019 521.804 174.518 517.768 170.445C513.731 166.371 508.25 164.055 502.516 164V164ZM499.769 212.514C498.898 212.511 498.049 212.244 497.333 211.75C496.617 211.255 496.067 210.556 495.756 209.743H491.187C490.887 209.741 490.594 209.646 490.35 209.469C490.106 209.293 489.924 209.045 489.828 208.76L488.424 204.532L483.984 220.048C483.897 220.346 483.716 220.609 483.468 220.796C483.22 220.983 482.917 221.084 482.606 221.085H482.517C482.192 221.069 481.883 220.943 481.641 220.726C481.398 220.51 481.237 220.217 481.185 219.897L476.609 192.373L473.265 208.66C473.188 208.969 473.01 209.244 472.759 209.44C472.508 209.637 472.198 209.743 471.879 209.743H465.444C465.251 209.751 465.058 209.72 464.878 209.652C464.697 209.584 464.532 209.48 464.393 209.346C464.253 209.213 464.143 209.052 464.067 208.875C463.991 208.697 463.952 208.506 463.952 208.313C463.952 208.12 463.991 207.929 464.067 207.751C464.143 207.574 464.253 207.413 464.393 207.28C464.532 207.146 464.697 207.042 464.878 206.974C465.058 206.906 465.251 206.875 465.444 206.883H470.752L475.49 184.986C475.568 184.662 475.755 184.375 476.021 184.175C476.287 183.974 476.614 183.872 476.947 183.886C477.279 183.9 477.597 184.029 477.845 184.251C478.093 184.473 478.256 184.774 478.307 185.103L482.98 213.18L486.96 199.298C487.042 199.005 487.218 198.748 487.459 198.563C487.7 198.378 487.995 198.277 488.299 198.273H488.327C488.628 198.274 488.921 198.369 489.165 198.545C489.409 198.722 489.59 198.971 489.684 199.257L492.222 206.89H495.7C495.947 206.139 496.397 205.471 497 204.959C497.603 204.448 498.336 204.113 499.117 203.991C499.898 203.87 500.698 203.967 501.428 204.271C502.158 204.575 502.79 205.076 503.253 205.716C503.717 206.357 503.994 207.113 504.055 207.902C504.116 208.69 503.958 209.48 503.598 210.184C503.239 210.889 502.691 211.48 502.017 211.893C501.343 212.306 500.567 212.524 499.776 212.524L499.769 212.514Z" fill="#4B7CA0"/>
</g>
<path d="M48.9903 102.624H54.3623V97.524H48.9903V102.624ZM48.6163 121.8H54.7363L54.1923 105.038H49.1603L48.6163 121.8ZM59.983 115H75.861V109.9H65.933V90.69H59.983V115ZM77.1352 109.764C77.1352 113.232 79.8212 115.408 83.0852 115.408C86.7572 115.408 88.0492 112.858 88.0492 112.858H88.1172C88.1172 112.858 88.0492 113.368 88.0492 113.946V115H93.4212V104.222C93.4212 99.768 90.4632 97.082 85.5332 97.082C81.2152 97.082 78.1892 99.36 78.1892 99.36L80.2292 103.508C80.2292 103.508 82.7452 101.842 84.9552 101.842C86.4172 101.842 87.5392 102.318 87.5392 103.78V104.086H87.3012C84.5812 104.086 77.1352 104.664 77.1352 109.764ZM83.0512 109.458C83.0512 107.996 85.1932 107.452 87.0632 107.452H87.6072V107.826C87.6072 109.254 86.2472 110.92 84.7172 110.92C83.5612 110.92 83.0512 110.274 83.0512 109.458ZM105.256 115H111.138V107.758C111.138 107.01 111.172 106.228 111.308 105.582C111.716 103.712 112.668 102.42 114.504 102.42C115.626 102.42 115.864 103.338 115.864 104.63V115H121.746V107.758C121.746 107.044 121.746 106.33 121.882 105.718C122.256 103.78 123.242 102.42 125.112 102.42C126.234 102.42 126.472 103.338 126.472 104.63V115H132.354V103.644C132.354 98.816 129.872 97.082 126.676 97.082C124.058 97.082 121.984 98.578 121.066 100.04H120.998C120.08 98.068 118.312 97.082 116.102 97.082C113.348 97.082 111.716 98.884 110.9 100.108H110.832C110.832 100.108 110.9 99.598 110.9 99.02V97.49H105.256V115ZM135.209 106.228C135.209 110.886 138.575 115.408 144.831 115.408C149.489 115.408 152.311 112.858 152.311 112.858L150.135 108.744C150.135 108.744 147.823 110.512 145.307 110.512C143.437 110.512 141.669 109.526 141.227 107.384H152.277C152.277 107.384 152.413 106.126 152.413 105.548C152.413 100.686 149.489 97.082 144.321 97.082C138.677 97.082 135.209 101.094 135.209 106.228ZM141.363 104.018C141.669 102.726 142.485 101.502 144.185 101.502C145.579 101.502 146.497 102.692 146.497 104.018H141.363ZM155.693 95.28H161.439V90.69H155.693V95.28ZM155.625 97.49V114.864C155.625 116.836 153.619 117.108 152.463 117.108C152.021 117.108 151.715 117.074 151.715 117.074V121.97C151.715 121.97 152.327 122.072 153.279 122.072C155.999 122.072 161.507 121.324 161.507 115.442V97.49H155.625ZM164.56 106.296C164.56 111.77 168.98 115.408 174.488 115.408C179.996 115.408 184.416 111.77 184.416 106.296C184.416 100.788 179.996 97.082 174.454 97.082C168.98 97.082 164.56 100.788 164.56 106.296ZM170.51 106.296C170.51 103.644 172.346 101.978 174.488 101.978C176.63 101.978 178.466 103.644 178.466 106.296C178.466 108.914 176.63 110.512 174.488 110.512C172.346 110.512 170.51 108.914 170.51 106.296ZM187.467 115H193.349V108.37C193.349 107.418 193.451 106.636 193.655 105.99C194.505 103.372 196.783 102.93 198.177 102.93C198.891 102.93 199.367 103.032 199.367 103.032V97.252C199.367 97.252 199.027 97.184 198.687 97.184C196.069 97.184 193.859 99.156 193.111 101.536H193.043C193.043 101.536 193.111 101.026 193.111 100.448V97.49H187.467V115ZM208.52 109.764C208.52 113.232 211.206 115.408 214.47 115.408C218.142 115.408 219.434 112.858 219.434 112.858H219.502C219.502 112.858 219.434 113.368 219.434 113.946V115H224.806V104.222C224.806 99.768 221.848 97.082 216.918 97.082C212.6 97.082 209.574 99.36 209.574 99.36L211.614 103.508C211.614 103.508 214.13 101.842 216.34 101.842C217.802 101.842 218.924 102.318 218.924 103.78V104.086H218.686C215.966 104.086 208.52 104.664 208.52 109.764ZM214.436 109.458C214.436 107.996 216.578 107.452 218.448 107.452H218.992V107.826C218.992 109.254 217.632 110.92 216.102 110.92C214.946 110.92 214.436 110.274 214.436 109.458ZM229.755 108.54C229.755 114.422 235.161 115.17 237.949 115.17C238.901 115.17 239.547 115.068 239.547 115.068V109.968C239.547 109.968 239.241 110.002 238.765 110.002C237.643 110.002 235.637 109.73 235.637 107.758V102.386H239.309V97.796H235.637V92.764H229.925V97.796H227.511V102.386H229.755V108.54ZM241.725 106.228C241.725 110.886 245.091 115.408 251.347 115.408C256.005 115.408 258.827 112.858 258.827 112.858L256.651 108.744C256.651 108.744 254.339 110.512 251.823 110.512C249.953 110.512 248.185 109.526 247.743 107.384H258.793C258.793 107.384 258.929 106.126 258.929 105.548C258.929 100.686 256.005 97.082 250.837 97.082C245.193 97.082 241.725 101.094 241.725 106.228ZM247.879 104.018C248.185 102.726 249.001 101.502 250.701 101.502C252.095 101.502 253.013 102.692 253.013 104.018H247.879ZM262.141 115H268.023V107.248C268.023 106.398 268.125 105.616 268.363 104.936C268.873 103.44 269.995 102.42 271.831 102.42C273.123 102.42 273.769 103.1 273.769 104.732V115H279.651V103.644C279.651 98.714 276.897 97.082 273.361 97.082C270.267 97.082 268.601 98.748 267.785 100.108H267.717C267.717 100.108 267.785 99.598 267.785 99.02V97.49H262.141V115ZM282.464 106.228C282.464 111.056 285.966 115.408 292.222 115.408C297.118 115.408 299.736 112.518 299.736 112.518L297.594 108.404C297.594 108.404 295.248 110.512 292.8 110.512C289.842 110.512 288.414 108.234 288.414 106.16C288.414 104.086 289.808 101.978 292.596 101.978C295.01 101.978 296.71 103.678 296.71 103.678L299.192 99.734C299.192 99.734 296.982 97.082 292.222 97.082C285.932 97.082 282.464 101.536 282.464 106.228ZM302.551 95.28H308.297V90.69H302.551V95.28ZM302.483 115H308.365V97.49H302.483V115ZM311.417 106.296C311.417 111.77 315.837 115.408 321.345 115.408C326.853 115.408 331.273 111.77 331.273 106.296C331.273 100.788 326.853 97.082 321.311 97.082C315.837 97.082 311.417 100.788 311.417 106.296ZM317.367 106.296C317.367 103.644 319.203 101.978 321.345 101.978C323.487 101.978 325.323 103.644 325.323 106.296C325.323 108.914 323.487 110.512 321.345 110.512C319.203 110.512 317.367 108.914 317.367 106.296ZM318.897 95.79H323.453L327.465 90.69H321.651L318.897 95.79ZM334.324 115H340.206V107.248C340.206 106.398 340.308 105.616 340.546 104.936C341.056 103.44 342.178 102.42 344.014 102.42C345.306 102.42 345.952 103.1 345.952 104.732V115H351.834V103.644C351.834 98.714 349.08 97.082 345.544 97.082C342.45 97.082 340.784 98.748 339.968 100.108H339.9C339.9 100.108 339.968 99.598 339.968 99.02V97.49H334.324V115ZM88.6877 162.8H94.5697V156.238C94.5697 155.354 94.5017 154.742 94.5017 154.742H94.5697C94.5697 154.742 96.1677 156.408 99.0237 156.408C103.682 156.408 107.184 152.804 107.184 147.262C107.184 141.822 104.056 138.082 99.2957 138.082C95.5897 138.082 93.9917 140.496 93.9917 140.496H93.9237C93.9237 140.496 93.9917 139.952 93.9917 139.374V138.49H88.6877V162.8ZM94.3997 147.364C94.3997 144.338 96.0657 143.046 97.8337 143.046C99.8737 143.046 101.268 144.746 101.268 147.364C101.268 150.05 99.6697 151.546 97.8337 151.546C95.5217 151.546 94.3997 149.472 94.3997 147.364ZM109.01 150.764C109.01 154.232 111.696 156.408 114.96 156.408C118.632 156.408 119.924 153.858 119.924 153.858H119.992C119.992 153.858 119.924 154.368 119.924 154.946V156H125.296V145.222C125.296 140.768 122.338 138.082 117.408 138.082C113.09 138.082 110.064 140.36 110.064 140.36L112.104 144.508C112.104 144.508 114.62 142.842 116.83 142.842C118.292 142.842 119.414 143.318 119.414 144.78V145.086H119.176C116.456 145.086 109.01 145.664 109.01 150.764ZM114.926 150.458C114.926 148.996 117.068 148.452 118.938 148.452H119.482V148.826C119.482 150.254 118.122 151.92 116.592 151.92C115.436 151.92 114.926 151.274 114.926 150.458ZM129.362 156H135.244V149.37C135.244 148.418 135.346 147.636 135.55 146.99C136.4 144.372 138.678 143.93 140.072 143.93C140.786 143.93 141.262 144.032 141.262 144.032V138.252C141.262 138.252 140.922 138.184 140.582 138.184C137.964 138.184 135.754 140.156 135.006 142.536H134.938C134.938 142.536 135.006 142.026 135.006 141.448V138.49H129.362V156ZM142.645 150.764C142.645 154.232 145.331 156.408 148.595 156.408C152.267 156.408 153.559 153.858 153.559 153.858H153.627C153.627 153.858 153.559 154.368 153.559 154.946V156H158.931V145.222C158.931 140.768 155.973 138.082 151.043 138.082C146.725 138.082 143.699 140.36 143.699 140.36L145.739 144.508C145.739 144.508 148.255 142.842 150.465 142.842C151.927 142.842 153.049 143.318 153.049 144.78V145.086H152.811C150.091 145.086 142.645 145.664 142.645 150.764ZM148.561 150.458C148.561 148.996 150.703 148.452 152.573 148.452H153.117V148.826C153.117 150.254 151.757 151.92 150.227 151.92C149.071 151.92 148.561 151.274 148.561 150.458ZM171.65 149.54C171.65 155.422 177.056 156.17 179.844 156.17C180.796 156.17 181.442 156.068 181.442 156.068V150.968C181.442 150.968 181.136 151.002 180.66 151.002C179.538 151.002 177.532 150.73 177.532 148.758V143.386H181.204V138.796H177.532V133.764H171.82V138.796H169.406V143.386H171.65V149.54ZM184.639 149.846C184.639 154.776 187.393 156.408 190.861 156.408C193.207 156.408 195.383 155.252 196.335 153.382H196.403C196.403 153.382 196.335 153.892 196.335 154.47V156H201.979V138.49H196.097V146.242C196.097 148.86 194.907 151.07 192.391 151.07C191.167 151.07 190.521 150.39 190.521 148.758V138.49H184.639V149.846ZM212.736 153.824C212.736 153.824 215.354 156.408 219.74 156.408C224.262 156.408 226.914 153.858 226.914 150.866C226.914 145.222 218.72 145.018 218.72 143.692C218.72 143.08 219.57 142.842 220.454 142.842C222.902 142.842 224.602 144.27 224.602 144.27L226.608 140.088C226.608 140.088 224.534 138.082 220.454 138.082C216.408 138.082 213.246 140.122 213.246 143.42C213.246 149.132 221.44 149.302 221.44 150.832C221.44 151.41 220.59 151.648 219.706 151.648C217.19 151.648 215.252 149.88 215.252 149.88L212.736 153.824ZM228.774 150.764C228.774 154.232 231.46 156.408 234.724 156.408C238.396 156.408 239.688 153.858 239.688 153.858H239.756C239.756 153.858 239.688 154.368 239.688 154.946V156H245.06V145.222C245.06 140.768 242.102 138.082 237.172 138.082C232.854 138.082 229.828 140.36 229.828 140.36L231.868 144.508C231.868 144.508 234.384 142.842 236.594 142.842C238.056 142.842 239.178 143.318 239.178 144.78V145.086H238.94C236.22 145.086 228.774 145.664 228.774 150.764ZM234.69 150.458C234.69 148.996 236.832 148.452 238.702 148.452H239.246V148.826C239.246 150.254 237.886 151.92 236.356 151.92C235.2 151.92 234.69 151.274 234.69 150.458ZM248.887 149.54C248.887 155.422 252.219 156.17 255.347 156.17C256.299 156.17 257.115 156.068 257.115 156.068V150.968C257.115 150.968 256.775 151.002 256.401 151.002C255.075 151.002 254.769 150.424 254.769 148.758V131.69H248.887V149.54ZM259.877 149.846C259.877 154.776 262.631 156.408 266.099 156.408C268.445 156.408 270.621 155.252 271.573 153.382H271.641C271.641 153.382 271.573 153.892 271.573 154.47V156H277.217V138.49H271.335V146.242C271.335 148.86 270.145 151.07 267.629 151.07C266.405 151.07 265.759 150.39 265.759 148.758V138.49H259.877V149.846ZM280.375 147.228C280.375 152.668 283.503 156.408 288.263 156.408C291.867 156.408 293.329 153.858 293.329 153.858H293.397C293.397 153.858 293.363 154.3 293.363 154.844V156H298.871V131.69H292.989V138.694C292.989 139.136 293.023 139.476 293.023 139.476H292.955C292.955 139.476 291.901 138.082 288.365 138.082C283.707 138.082 280.375 141.686 280.375 147.228ZM286.291 147.228C286.291 144.542 287.889 143.046 289.725 143.046C292.037 143.046 293.159 145.12 293.159 147.228C293.159 150.254 291.493 151.546 289.725 151.546C287.685 151.546 286.291 149.846 286.291 147.228ZM304.743 148.486H309.775L310.319 131.69H304.199L304.743 148.486ZM304.573 156H309.945V150.9H304.573V156Z" fill="white"/>
<defs>
<linearGradient id="paint0_linear_445_2665" x1="73.3166" y1="598.941" x2="73.3166" y2="180.001" gradientUnits="userSpaceOnUse">
<stop stop-color="#808080" stop-opacity="0.25"/>
<stop offset="0.54" stop-color="#808080" stop-opacity="0.12"/>
<stop offset="1" stop-color="#808080" stop-opacity="0.1"/>
</linearGradient>
<clipPath id="clip0_445_2665">
<rect width="205" height="624" fill="white" transform="translate(354)"/>
</clipPath>
</defs>
</svg>
